<mxfile host="app.diagrams.net" modified="2023-07-08T01:13:30.174Z" agent="Mozilla/5.0 (Windows NT 10.0; Win64; x64) AppleWebKit/537.36 (KHTML, like Gecko) Chrome/114.0.0.0 Safari/537.36" etag="qn6jVMCMu0t-Cw32E_mE" version="21.4.0" type="github" pages="9">
  <diagram name="Register Account" id="2YBvvXClWsGukQMizWep">
    <mxGraphModel dx="1134" dy="600" grid="1" gridSize="10" guides="1" tooltips="1" connect="1" arrows="1" fold="1" page="1" pageScale="1" pageWidth="850" pageHeight="1100" math="0" shadow="0">
      <root>
        <mxCell id="0" />
        <mxCell id="1" parent="0" />
        <mxCell id="aM9ryv3xv72pqoxQDRHE-1" value="Individual / &lt;br&gt;Organization" style="shape=umlLifeline;perimeter=lifelinePerimeter;whiteSpace=wrap;html=1;container=0;dropTarget=0;collapsible=0;recursiveResize=0;outlineConnect=0;portConstraint=eastwest;newEdgeStyle={&quot;edgeStyle&quot;:&quot;elbowEdgeStyle&quot;,&quot;elbow&quot;:&quot;vertical&quot;,&quot;curved&quot;:0,&quot;rounded&quot;:0};fontSize=9;" parent="1" vertex="1">
          <mxGeometry x="40" y="160" width="100" height="400" as="geometry" />
        </mxCell>
        <mxCell id="aM9ryv3xv72pqoxQDRHE-2" value="" style="html=1;points=[];perimeter=orthogonalPerimeter;outlineConnect=0;targetShapes=umlLifeline;portConstraint=eastwest;newEdgeStyle={&quot;edgeStyle&quot;:&quot;elbowEdgeStyle&quot;,&quot;elbow&quot;:&quot;vertical&quot;,&quot;curved&quot;:0,&quot;rounded&quot;:0};fontSize=9;" parent="aM9ryv3xv72pqoxQDRHE-1" vertex="1">
          <mxGeometry x="45" y="70" width="10" height="230" as="geometry" />
        </mxCell>
        <mxCell id="aM9ryv3xv72pqoxQDRHE-5" value="Back End" style="shape=umlLifeline;perimeter=lifelinePerimeter;whiteSpace=wrap;html=1;container=0;dropTarget=0;collapsible=0;recursiveResize=0;outlineConnect=0;portConstraint=eastwest;newEdgeStyle={&quot;edgeStyle&quot;:&quot;elbowEdgeStyle&quot;,&quot;elbow&quot;:&quot;vertical&quot;,&quot;curved&quot;:0,&quot;rounded&quot;:0};fontSize=9;" parent="1" vertex="1">
          <mxGeometry x="220" y="160" width="100" height="400" as="geometry" />
        </mxCell>
        <mxCell id="aM9ryv3xv72pqoxQDRHE-6" value="" style="html=1;points=[];perimeter=orthogonalPerimeter;outlineConnect=0;targetShapes=umlLifeline;portConstraint=eastwest;newEdgeStyle={&quot;edgeStyle&quot;:&quot;elbowEdgeStyle&quot;,&quot;elbow&quot;:&quot;vertical&quot;,&quot;curved&quot;:0,&quot;rounded&quot;:0};fontSize=9;" parent="aM9ryv3xv72pqoxQDRHE-5" vertex="1">
          <mxGeometry x="45" y="80" width="10" height="140" as="geometry" />
        </mxCell>
        <mxCell id="aM9ryv3xv72pqoxQDRHE-7" value="register()" style="html=1;verticalAlign=bottom;endArrow=block;edgeStyle=elbowEdgeStyle;elbow=vertical;curved=0;rounded=0;fontSize=9;" parent="1" source="aM9ryv3xv72pqoxQDRHE-2" target="aM9ryv3xv72pqoxQDRHE-6" edge="1">
          <mxGeometry relative="1" as="geometry">
            <mxPoint x="195" y="250" as="sourcePoint" />
            <Array as="points">
              <mxPoint x="180" y="240" />
            </Array>
          </mxGeometry>
        </mxCell>
        <mxCell id="FKBc2LG_mk5rwhCFt5uQ-1" value="Database" style="shape=umlLifeline;perimeter=lifelinePerimeter;whiteSpace=wrap;html=1;container=1;dropTarget=0;collapsible=0;recursiveResize=0;outlineConnect=0;portConstraint=eastwest;newEdgeStyle={&quot;edgeStyle&quot;:&quot;elbowEdgeStyle&quot;,&quot;elbow&quot;:&quot;vertical&quot;,&quot;curved&quot;:0,&quot;rounded&quot;:0};fontSize=9;" vertex="1" parent="1">
          <mxGeometry x="400" y="160" width="100" height="400" as="geometry" />
        </mxCell>
        <mxCell id="FKBc2LG_mk5rwhCFt5uQ-12" value="" style="html=1;points=[];perimeter=orthogonalPerimeter;outlineConnect=0;targetShapes=umlLifeline;portConstraint=eastwest;newEdgeStyle={&quot;edgeStyle&quot;:&quot;elbowEdgeStyle&quot;,&quot;elbow&quot;:&quot;vertical&quot;,&quot;curved&quot;:0,&quot;rounded&quot;:0};fontSize=9;" vertex="1" parent="FKBc2LG_mk5rwhCFt5uQ-1">
          <mxGeometry x="45" y="100" width="10" height="30" as="geometry" />
        </mxCell>
        <mxCell id="FKBc2LG_mk5rwhCFt5uQ-3" value="" style="shape=umlActor;verticalLabelPosition=bottom;verticalAlign=top;html=1;fontSize=9;" vertex="1" parent="1">
          <mxGeometry x="75" y="100" width="30" height="60" as="geometry" />
        </mxCell>
        <mxCell id="FKBc2LG_mk5rwhCFt5uQ-10" style="edgeStyle=elbowEdgeStyle;rounded=0;orthogonalLoop=1;jettySize=auto;html=1;elbow=vertical;curved=0;fontSize=9;" edge="1" parent="1" source="aM9ryv3xv72pqoxQDRHE-6" target="FKBc2LG_mk5rwhCFt5uQ-1">
          <mxGeometry relative="1" as="geometry">
            <Array as="points">
              <mxPoint x="300" y="260" />
            </Array>
          </mxGeometry>
        </mxCell>
        <mxCell id="FKBc2LG_mk5rwhCFt5uQ-11" value="getIndividualEmail()" style="edgeLabel;html=1;align=center;verticalAlign=middle;resizable=0;points=[];fontSize=9;" vertex="1" connectable="0" parent="FKBc2LG_mk5rwhCFt5uQ-10">
          <mxGeometry x="-0.0105" y="2" relative="1" as="geometry">
            <mxPoint y="-8" as="offset" />
          </mxGeometry>
        </mxCell>
        <mxCell id="FKBc2LG_mk5rwhCFt5uQ-13" style="edgeStyle=elbowEdgeStyle;rounded=0;orthogonalLoop=1;jettySize=auto;html=1;elbow=vertical;curved=0;dashed=1;fontSize=9;" edge="1" parent="1" source="FKBc2LG_mk5rwhCFt5uQ-12" target="aM9ryv3xv72pqoxQDRHE-6">
          <mxGeometry relative="1" as="geometry">
            <mxPoint x="280" y="280" as="targetPoint" />
            <Array as="points">
              <mxPoint x="420" y="290" />
              <mxPoint x="340" y="280" />
            </Array>
          </mxGeometry>
        </mxCell>
        <mxCell id="FKBc2LG_mk5rwhCFt5uQ-14" value="email" style="edgeLabel;html=1;align=center;verticalAlign=middle;resizable=0;points=[];fontSize=9;" vertex="1" connectable="0" parent="FKBc2LG_mk5rwhCFt5uQ-13">
          <mxGeometry x="-0.0303" y="-1" relative="1" as="geometry">
            <mxPoint y="-9" as="offset" />
          </mxGeometry>
        </mxCell>
        <mxCell id="FKBc2LG_mk5rwhCFt5uQ-15" value="alt" style="shape=umlFrame;whiteSpace=wrap;html=1;pointerEvents=0;width=40;height=20;fontSize=9;" vertex="1" parent="1">
          <mxGeometry x="50" y="300" width="430" height="180" as="geometry" />
        </mxCell>
        <mxCell id="FKBc2LG_mk5rwhCFt5uQ-17" value="&lt;font style=&quot;font-size: 9px;&quot;&gt;[email =null]&lt;/font&gt;" style="text;html=1;strokeColor=none;fillColor=none;align=center;verticalAlign=middle;whiteSpace=wrap;rounded=0;fontSize=9;" vertex="1" parent="1">
          <mxGeometry x="280" y="300" width="60" height="30" as="geometry" />
        </mxCell>
        <mxCell id="FKBc2LG_mk5rwhCFt5uQ-18" value="" style="endArrow=none;dashed=1;html=1;rounded=0;exitX=0.005;exitY=0.559;exitDx=0;exitDy=0;exitPerimeter=0;entryX=1;entryY=0.556;entryDx=0;entryDy=0;entryPerimeter=0;fontSize=9;" edge="1" parent="1" source="FKBc2LG_mk5rwhCFt5uQ-15" target="FKBc2LG_mk5rwhCFt5uQ-15">
          <mxGeometry width="50" height="50" relative="1" as="geometry">
            <mxPoint x="220" y="390" as="sourcePoint" />
            <mxPoint x="270" y="340" as="targetPoint" />
          </mxGeometry>
        </mxCell>
        <mxCell id="FKBc2LG_mk5rwhCFt5uQ-20" value="&lt;font style=&quot;font-size: 9px;&quot;&gt;[else]&lt;/font&gt;" style="text;html=1;strokeColor=none;fillColor=none;align=center;verticalAlign=middle;whiteSpace=wrap;rounded=0;fontSize=9;" vertex="1" parent="1">
          <mxGeometry x="270" y="400" width="60" height="30" as="geometry" />
        </mxCell>
        <mxCell id="FKBc2LG_mk5rwhCFt5uQ-36" style="edgeStyle=elbowEdgeStyle;rounded=0;orthogonalLoop=1;jettySize=auto;html=1;elbow=vertical;curved=0;fontFamily=Helvetica;fontSize=9;fontColor=default;dashed=1;" edge="1" parent="1" target="aM9ryv3xv72pqoxQDRHE-6">
          <mxGeometry relative="1" as="geometry">
            <mxPoint x="445" y="360" as="sourcePoint" />
            <Array as="points">
              <mxPoint x="360" y="370" />
              <mxPoint x="380" y="360" />
            </Array>
          </mxGeometry>
        </mxCell>
        <mxCell id="FKBc2LG_mk5rwhCFt5uQ-39" value="success" style="edgeLabel;html=1;align=center;verticalAlign=middle;resizable=0;points=[];fontSize=9;fontFamily=Helvetica;fontColor=default;" vertex="1" connectable="0" parent="FKBc2LG_mk5rwhCFt5uQ-36">
          <mxGeometry x="0.0779" y="-2" relative="1" as="geometry">
            <mxPoint x="17" y="-8" as="offset" />
          </mxGeometry>
        </mxCell>
        <mxCell id="FKBc2LG_mk5rwhCFt5uQ-35" style="edgeStyle=elbowEdgeStyle;rounded=0;orthogonalLoop=1;jettySize=auto;html=1;elbow=vertical;curved=0;fontFamily=Helvetica;fontSize=9;fontColor=default;" edge="1" parent="1" source="aM9ryv3xv72pqoxQDRHE-6" target="FKBc2LG_mk5rwhCFt5uQ-37">
          <mxGeometry relative="1" as="geometry">
            <mxPoint x="445" y="330" as="targetPoint" />
            <Array as="points">
              <mxPoint x="380" y="340" />
            </Array>
          </mxGeometry>
        </mxCell>
        <mxCell id="FKBc2LG_mk5rwhCFt5uQ-38" value="registerIndividual()" style="edgeLabel;html=1;align=center;verticalAlign=middle;resizable=0;points=[];fontSize=9;fontFamily=Helvetica;fontColor=default;" vertex="1" connectable="0" parent="FKBc2LG_mk5rwhCFt5uQ-35">
          <mxGeometry x="-0.0049" y="-1" relative="1" as="geometry">
            <mxPoint x="10" y="-11" as="offset" />
          </mxGeometry>
        </mxCell>
        <mxCell id="FKBc2LG_mk5rwhCFt5uQ-37" value="" style="html=1;points=[];perimeter=orthogonalPerimeter;outlineConnect=0;targetShapes=umlLifeline;portConstraint=eastwest;newEdgeStyle={&quot;edgeStyle&quot;:&quot;elbowEdgeStyle&quot;,&quot;elbow&quot;:&quot;vertical&quot;,&quot;curved&quot;:0,&quot;rounded&quot;:0};fontSize=9;" vertex="1" parent="1">
          <mxGeometry x="445" y="340" width="10" height="30" as="geometry" />
        </mxCell>
        <mxCell id="FKBc2LG_mk5rwhCFt5uQ-40" style="edgeStyle=elbowEdgeStyle;rounded=0;orthogonalLoop=1;jettySize=auto;html=1;elbow=vertical;curved=0;fontFamily=Helvetica;fontSize=9;fontColor=default;dashed=1;" edge="1" parent="1" source="aM9ryv3xv72pqoxQDRHE-6" target="aM9ryv3xv72pqoxQDRHE-2">
          <mxGeometry relative="1" as="geometry">
            <Array as="points">
              <mxPoint x="200" y="380" />
            </Array>
          </mxGeometry>
        </mxCell>
        <mxCell id="FKBc2LG_mk5rwhCFt5uQ-41" value="success" style="edgeLabel;html=1;align=center;verticalAlign=middle;resizable=0;points=[];fontSize=9;fontFamily=Helvetica;fontColor=default;" vertex="1" connectable="0" parent="FKBc2LG_mk5rwhCFt5uQ-40">
          <mxGeometry x="0.0292" y="2" relative="1" as="geometry">
            <mxPoint y="-12" as="offset" />
          </mxGeometry>
        </mxCell>
        <mxCell id="FKBc2LG_mk5rwhCFt5uQ-43" style="edgeStyle=elbowEdgeStyle;rounded=0;orthogonalLoop=1;jettySize=auto;html=1;elbow=vertical;curved=0;fontFamily=Helvetica;fontSize=9;fontColor=default;dashed=1;" edge="1" parent="1" source="FKBc2LG_mk5rwhCFt5uQ-42" target="aM9ryv3xv72pqoxQDRHE-2">
          <mxGeometry relative="1" as="geometry">
            <Array as="points">
              <mxPoint x="210" y="460" />
            </Array>
          </mxGeometry>
        </mxCell>
        <mxCell id="FKBc2LG_mk5rwhCFt5uQ-49" value="error" style="edgeLabel;html=1;align=center;verticalAlign=middle;resizable=0;points=[];fontSize=9;fontFamily=Helvetica;fontColor=default;" vertex="1" connectable="0" parent="FKBc2LG_mk5rwhCFt5uQ-43">
          <mxGeometry x="0.1996" y="3" relative="1" as="geometry">
            <mxPoint x="17" y="-13" as="offset" />
          </mxGeometry>
        </mxCell>
        <mxCell id="FKBc2LG_mk5rwhCFt5uQ-42" value="" style="html=1;points=[];perimeter=orthogonalPerimeter;outlineConnect=0;targetShapes=umlLifeline;portConstraint=eastwest;newEdgeStyle={&quot;edgeStyle&quot;:&quot;elbowEdgeStyle&quot;,&quot;elbow&quot;:&quot;vertical&quot;,&quot;curved&quot;:0,&quot;rounded&quot;:0};labelBackgroundColor=default;fontFamily=Helvetica;fontSize=9;" vertex="1" parent="1">
          <mxGeometry x="265" y="400" width="10" height="60" as="geometry" />
        </mxCell>
        <mxCell id="FKBc2LG_mk5rwhCFt5uQ-46" style="rounded=0;orthogonalLoop=1;jettySize=auto;html=1;fontFamily=Helvetica;fontSize=9;fontColor=default;edgeStyle=orthogonalEdgeStyle;" edge="1" parent="1" source="FKBc2LG_mk5rwhCFt5uQ-42">
          <mxGeometry relative="1" as="geometry">
            <mxPoint x="275" y="442" as="sourcePoint" />
            <mxPoint x="275" y="452" as="targetPoint" />
            <Array as="points">
              <mxPoint x="300" y="430" />
            </Array>
          </mxGeometry>
        </mxCell>
        <mxCell id="FKBc2LG_mk5rwhCFt5uQ-48" value="errorHandler()" style="edgeLabel;html=1;align=center;verticalAlign=middle;resizable=0;points=[];fontSize=9;fontFamily=Helvetica;fontColor=default;" vertex="1" connectable="0" parent="FKBc2LG_mk5rwhCFt5uQ-46">
          <mxGeometry x="0.2308" relative="1" as="geometry">
            <mxPoint x="20" y="-9" as="offset" />
          </mxGeometry>
        </mxCell>
      </root>
    </mxGraphModel>
  </diagram>
  <diagram name="Login" id="xsWFJFOPivRXmeFNJSYR">
    <mxGraphModel dx="548" dy="290" grid="1" gridSize="10" guides="1" tooltips="1" connect="1" arrows="1" fold="1" page="1" pageScale="1" pageWidth="850" pageHeight="1100" math="0" shadow="0">
      <root>
        <mxCell id="sbs7UdZOYSfjfKvlzON9-0" />
        <mxCell id="sbs7UdZOYSfjfKvlzON9-1" parent="sbs7UdZOYSfjfKvlzON9-0" />
        <mxCell id="sbs7UdZOYSfjfKvlzON9-2" value="Individual / &lt;br&gt;Organization" style="shape=umlLifeline;perimeter=lifelinePerimeter;whiteSpace=wrap;html=1;container=0;dropTarget=0;collapsible=0;recursiveResize=0;outlineConnect=0;portConstraint=eastwest;newEdgeStyle={&quot;edgeStyle&quot;:&quot;elbowEdgeStyle&quot;,&quot;elbow&quot;:&quot;vertical&quot;,&quot;curved&quot;:0,&quot;rounded&quot;:0};fontSize=9;" vertex="1" parent="sbs7UdZOYSfjfKvlzON9-1">
          <mxGeometry x="40" y="160" width="100" height="400" as="geometry" />
        </mxCell>
        <mxCell id="sbs7UdZOYSfjfKvlzON9-3" value="" style="html=1;points=[];perimeter=orthogonalPerimeter;outlineConnect=0;targetShapes=umlLifeline;portConstraint=eastwest;newEdgeStyle={&quot;edgeStyle&quot;:&quot;elbowEdgeStyle&quot;,&quot;elbow&quot;:&quot;vertical&quot;,&quot;curved&quot;:0,&quot;rounded&quot;:0};fontSize=9;" vertex="1" parent="sbs7UdZOYSfjfKvlzON9-2">
          <mxGeometry x="45" y="70" width="10" height="230" as="geometry" />
        </mxCell>
        <mxCell id="sbs7UdZOYSfjfKvlzON9-4" value="Back End" style="shape=umlLifeline;perimeter=lifelinePerimeter;whiteSpace=wrap;html=1;container=0;dropTarget=0;collapsible=0;recursiveResize=0;outlineConnect=0;portConstraint=eastwest;newEdgeStyle={&quot;edgeStyle&quot;:&quot;elbowEdgeStyle&quot;,&quot;elbow&quot;:&quot;vertical&quot;,&quot;curved&quot;:0,&quot;rounded&quot;:0};fontSize=9;" vertex="1" parent="sbs7UdZOYSfjfKvlzON9-1">
          <mxGeometry x="220" y="160" width="100" height="400" as="geometry" />
        </mxCell>
        <mxCell id="sbs7UdZOYSfjfKvlzON9-5" value="" style="html=1;points=[];perimeter=orthogonalPerimeter;outlineConnect=0;targetShapes=umlLifeline;portConstraint=eastwest;newEdgeStyle={&quot;edgeStyle&quot;:&quot;elbowEdgeStyle&quot;,&quot;elbow&quot;:&quot;vertical&quot;,&quot;curved&quot;:0,&quot;rounded&quot;:0};fontSize=9;" vertex="1" parent="sbs7UdZOYSfjfKvlzON9-4">
          <mxGeometry x="45" y="80" width="10" height="140" as="geometry" />
        </mxCell>
        <mxCell id="sbs7UdZOYSfjfKvlzON9-20" style="edgeStyle=elbowEdgeStyle;rounded=0;orthogonalLoop=1;jettySize=auto;html=1;fontFamily=Helvetica;fontSize=9;fontColor=default;exitX=1;exitY=0.643;exitDx=0;exitDy=0;exitPerimeter=0;" edge="1" parent="sbs7UdZOYSfjfKvlzON9-4" source="sbs7UdZOYSfjfKvlzON9-5" target="sbs7UdZOYSfjfKvlzON9-5">
          <mxGeometry relative="1" as="geometry">
            <mxPoint x="55" y="138" as="sourcePoint" />
            <mxPoint x="55" y="198" as="targetPoint" />
            <Array as="points">
              <mxPoint x="80" y="210" />
              <mxPoint x="80" y="200" />
              <mxPoint x="80" y="180" />
            </Array>
          </mxGeometry>
        </mxCell>
        <mxCell id="sbs7UdZOYSfjfKvlzON9-21" value="loginIndividual()" style="edgeLabel;html=1;align=center;verticalAlign=middle;resizable=0;points=[];fontSize=9;fontFamily=Helvetica;fontColor=default;" vertex="1" connectable="0" parent="sbs7UdZOYSfjfKvlzON9-20">
          <mxGeometry x="-0.0049" y="-1" relative="1" as="geometry">
            <mxPoint x="21" as="offset" />
          </mxGeometry>
        </mxCell>
        <mxCell id="sbs7UdZOYSfjfKvlzON9-6" value="login()" style="html=1;verticalAlign=bottom;endArrow=block;edgeStyle=elbowEdgeStyle;elbow=vertical;curved=0;rounded=0;fontSize=9;" edge="1" parent="sbs7UdZOYSfjfKvlzON9-1" source="sbs7UdZOYSfjfKvlzON9-3" target="sbs7UdZOYSfjfKvlzON9-5">
          <mxGeometry relative="1" as="geometry">
            <mxPoint x="195" y="250" as="sourcePoint" />
            <Array as="points">
              <mxPoint x="180" y="240" />
            </Array>
            <mxPoint as="offset" />
          </mxGeometry>
        </mxCell>
        <mxCell id="sbs7UdZOYSfjfKvlzON9-7" value="Database" style="shape=umlLifeline;perimeter=lifelinePerimeter;whiteSpace=wrap;html=1;container=1;dropTarget=0;collapsible=0;recursiveResize=0;outlineConnect=0;portConstraint=eastwest;newEdgeStyle={&quot;edgeStyle&quot;:&quot;elbowEdgeStyle&quot;,&quot;elbow&quot;:&quot;vertical&quot;,&quot;curved&quot;:0,&quot;rounded&quot;:0};fontSize=9;" vertex="1" parent="sbs7UdZOYSfjfKvlzON9-1">
          <mxGeometry x="400" y="160" width="100" height="400" as="geometry" />
        </mxCell>
        <mxCell id="sbs7UdZOYSfjfKvlzON9-8" value="" style="html=1;points=[];perimeter=orthogonalPerimeter;outlineConnect=0;targetShapes=umlLifeline;portConstraint=eastwest;newEdgeStyle={&quot;edgeStyle&quot;:&quot;elbowEdgeStyle&quot;,&quot;elbow&quot;:&quot;vertical&quot;,&quot;curved&quot;:0,&quot;rounded&quot;:0};fontSize=9;" vertex="1" parent="sbs7UdZOYSfjfKvlzON9-7">
          <mxGeometry x="45" y="100" width="10" height="30" as="geometry" />
        </mxCell>
        <mxCell id="sbs7UdZOYSfjfKvlzON9-9" value="" style="shape=umlActor;verticalLabelPosition=bottom;verticalAlign=top;html=1;fontSize=9;" vertex="1" parent="sbs7UdZOYSfjfKvlzON9-1">
          <mxGeometry x="75" y="100" width="30" height="60" as="geometry" />
        </mxCell>
        <mxCell id="sbs7UdZOYSfjfKvlzON9-10" style="edgeStyle=elbowEdgeStyle;rounded=0;orthogonalLoop=1;jettySize=auto;html=1;elbow=vertical;curved=0;fontSize=9;" edge="1" parent="sbs7UdZOYSfjfKvlzON9-1" source="sbs7UdZOYSfjfKvlzON9-5" target="sbs7UdZOYSfjfKvlzON9-7">
          <mxGeometry relative="1" as="geometry">
            <Array as="points">
              <mxPoint x="300" y="260" />
            </Array>
          </mxGeometry>
        </mxCell>
        <mxCell id="sbs7UdZOYSfjfKvlzON9-11" value="getIndividualEmailAndPassword()" style="edgeLabel;html=1;align=center;verticalAlign=middle;resizable=0;points=[];fontSize=9;" vertex="1" connectable="0" parent="sbs7UdZOYSfjfKvlzON9-10">
          <mxGeometry x="-0.0105" y="2" relative="1" as="geometry">
            <mxPoint y="-8" as="offset" />
          </mxGeometry>
        </mxCell>
        <mxCell id="sbs7UdZOYSfjfKvlzON9-12" style="edgeStyle=elbowEdgeStyle;rounded=0;orthogonalLoop=1;jettySize=auto;html=1;elbow=vertical;curved=0;dashed=1;fontSize=9;" edge="1" parent="sbs7UdZOYSfjfKvlzON9-1" source="sbs7UdZOYSfjfKvlzON9-8" target="sbs7UdZOYSfjfKvlzON9-5">
          <mxGeometry relative="1" as="geometry">
            <mxPoint x="280" y="280" as="targetPoint" />
            <Array as="points">
              <mxPoint x="420" y="290" />
              <mxPoint x="340" y="280" />
            </Array>
          </mxGeometry>
        </mxCell>
        <mxCell id="sbs7UdZOYSfjfKvlzON9-13" value="email and password" style="edgeLabel;html=1;align=center;verticalAlign=middle;resizable=0;points=[];fontSize=9;" vertex="1" connectable="0" parent="sbs7UdZOYSfjfKvlzON9-12">
          <mxGeometry x="-0.0303" y="-1" relative="1" as="geometry">
            <mxPoint y="-9" as="offset" />
          </mxGeometry>
        </mxCell>
        <mxCell id="sbs7UdZOYSfjfKvlzON9-14" value="alt" style="shape=umlFrame;whiteSpace=wrap;html=1;pointerEvents=0;width=40;height=20;fontSize=9;" vertex="1" parent="sbs7UdZOYSfjfKvlzON9-1">
          <mxGeometry x="50" y="300" width="430" height="180" as="geometry" />
        </mxCell>
        <mxCell id="sbs7UdZOYSfjfKvlzON9-15" value="&lt;font style=&quot;font-size: 9px;&quot;&gt;[email &amp;amp; password valid]&lt;/font&gt;" style="text;html=1;strokeColor=none;fillColor=none;align=left;verticalAlign=middle;whiteSpace=wrap;rounded=0;fontSize=9;" vertex="1" parent="sbs7UdZOYSfjfKvlzON9-1">
          <mxGeometry x="275" y="300" width="165" height="20" as="geometry" />
        </mxCell>
        <mxCell id="sbs7UdZOYSfjfKvlzON9-16" value="" style="endArrow=none;dashed=1;html=1;rounded=0;exitX=0.005;exitY=0.559;exitDx=0;exitDy=0;exitPerimeter=0;entryX=1;entryY=0.556;entryDx=0;entryDy=0;entryPerimeter=0;fontSize=9;" edge="1" parent="sbs7UdZOYSfjfKvlzON9-1" source="sbs7UdZOYSfjfKvlzON9-14" target="sbs7UdZOYSfjfKvlzON9-14">
          <mxGeometry width="50" height="50" relative="1" as="geometry">
            <mxPoint x="220" y="390" as="sourcePoint" />
            <mxPoint x="270" y="340" as="targetPoint" />
          </mxGeometry>
        </mxCell>
        <mxCell id="sbs7UdZOYSfjfKvlzON9-17" value="&lt;font style=&quot;font-size: 9px;&quot;&gt;[else]&lt;/font&gt;" style="text;html=1;strokeColor=none;fillColor=none;align=left;verticalAlign=middle;whiteSpace=wrap;rounded=0;fontSize=9;" vertex="1" parent="sbs7UdZOYSfjfKvlzON9-1">
          <mxGeometry x="275" y="400" width="60" height="20" as="geometry" />
        </mxCell>
        <mxCell id="sbs7UdZOYSfjfKvlzON9-23" style="edgeStyle=elbowEdgeStyle;rounded=0;orthogonalLoop=1;jettySize=auto;html=1;elbow=vertical;curved=0;fontFamily=Helvetica;fontSize=9;fontColor=default;dashed=1;" edge="1" parent="sbs7UdZOYSfjfKvlzON9-1" source="sbs7UdZOYSfjfKvlzON9-5" target="sbs7UdZOYSfjfKvlzON9-3">
          <mxGeometry relative="1" as="geometry">
            <Array as="points">
              <mxPoint x="200" y="380" />
            </Array>
          </mxGeometry>
        </mxCell>
        <mxCell id="sbs7UdZOYSfjfKvlzON9-24" value="token" style="edgeLabel;html=1;align=center;verticalAlign=middle;resizable=0;points=[];fontSize=9;fontFamily=Helvetica;fontColor=default;" vertex="1" connectable="0" parent="sbs7UdZOYSfjfKvlzON9-23">
          <mxGeometry x="0.0292" y="2" relative="1" as="geometry">
            <mxPoint y="-12" as="offset" />
          </mxGeometry>
        </mxCell>
        <mxCell id="sbs7UdZOYSfjfKvlzON9-25" style="edgeStyle=elbowEdgeStyle;rounded=0;orthogonalLoop=1;jettySize=auto;html=1;elbow=vertical;curved=0;fontFamily=Helvetica;fontSize=9;fontColor=default;dashed=1;" edge="1" parent="sbs7UdZOYSfjfKvlzON9-1" source="sbs7UdZOYSfjfKvlzON9-27" target="sbs7UdZOYSfjfKvlzON9-3">
          <mxGeometry relative="1" as="geometry">
            <Array as="points">
              <mxPoint x="210" y="460" />
            </Array>
          </mxGeometry>
        </mxCell>
        <mxCell id="sbs7UdZOYSfjfKvlzON9-26" value="error" style="edgeLabel;html=1;align=center;verticalAlign=middle;resizable=0;points=[];fontSize=9;fontFamily=Helvetica;fontColor=default;" vertex="1" connectable="0" parent="sbs7UdZOYSfjfKvlzON9-25">
          <mxGeometry x="0.1996" y="3" relative="1" as="geometry">
            <mxPoint x="17" y="-13" as="offset" />
          </mxGeometry>
        </mxCell>
        <mxCell id="sbs7UdZOYSfjfKvlzON9-27" value="" style="html=1;points=[];perimeter=orthogonalPerimeter;outlineConnect=0;targetShapes=umlLifeline;portConstraint=eastwest;newEdgeStyle={&quot;edgeStyle&quot;:&quot;elbowEdgeStyle&quot;,&quot;elbow&quot;:&quot;vertical&quot;,&quot;curved&quot;:0,&quot;rounded&quot;:0};labelBackgroundColor=default;fontFamily=Helvetica;fontSize=9;" vertex="1" parent="sbs7UdZOYSfjfKvlzON9-1">
          <mxGeometry x="265" y="410" width="10" height="50" as="geometry" />
        </mxCell>
        <mxCell id="sbs7UdZOYSfjfKvlzON9-28" style="rounded=0;orthogonalLoop=1;jettySize=auto;html=1;fontFamily=Helvetica;fontSize=9;fontColor=default;edgeStyle=orthogonalEdgeStyle;" edge="1" parent="sbs7UdZOYSfjfKvlzON9-1" source="sbs7UdZOYSfjfKvlzON9-27">
          <mxGeometry relative="1" as="geometry">
            <mxPoint x="275" y="442" as="sourcePoint" />
            <mxPoint x="275" y="452" as="targetPoint" />
            <Array as="points">
              <mxPoint x="300" y="430" />
            </Array>
          </mxGeometry>
        </mxCell>
        <mxCell id="sbs7UdZOYSfjfKvlzON9-29" value="errorHandler()" style="edgeLabel;html=1;align=center;verticalAlign=middle;resizable=0;points=[];fontSize=9;fontFamily=Helvetica;fontColor=default;" vertex="1" connectable="0" parent="sbs7UdZOYSfjfKvlzON9-28">
          <mxGeometry x="0.2308" relative="1" as="geometry">
            <mxPoint x="20" y="-9" as="offset" />
          </mxGeometry>
        </mxCell>
      </root>
    </mxGraphModel>
  </diagram>
  <diagram name="Org Update Profile" id="GG6or4PJZILHkgDN-GrE">
    <mxGraphModel dx="934" dy="561" grid="1" gridSize="10" guides="1" tooltips="1" connect="1" arrows="1" fold="1" page="1" pageScale="1" pageWidth="850" pageHeight="1100" math="0" shadow="0">
      <root>
        <mxCell id="8OJiHxa9IOpqiTdq25le-0" />
        <mxCell id="8OJiHxa9IOpqiTdq25le-1" parent="8OJiHxa9IOpqiTdq25le-0" />
        <mxCell id="8OJiHxa9IOpqiTdq25le-2" value="Organization" style="shape=umlLifeline;perimeter=lifelinePerimeter;whiteSpace=wrap;html=1;container=0;dropTarget=0;collapsible=0;recursiveResize=0;outlineConnect=0;portConstraint=eastwest;newEdgeStyle={&quot;edgeStyle&quot;:&quot;elbowEdgeStyle&quot;,&quot;elbow&quot;:&quot;vertical&quot;,&quot;curved&quot;:0,&quot;rounded&quot;:0};fontSize=9;" vertex="1" parent="8OJiHxa9IOpqiTdq25le-1">
          <mxGeometry x="40" y="160" width="100" height="400" as="geometry" />
        </mxCell>
        <mxCell id="8OJiHxa9IOpqiTdq25le-3" value="" style="html=1;points=[];perimeter=orthogonalPerimeter;outlineConnect=0;targetShapes=umlLifeline;portConstraint=eastwest;newEdgeStyle={&quot;edgeStyle&quot;:&quot;elbowEdgeStyle&quot;,&quot;elbow&quot;:&quot;vertical&quot;,&quot;curved&quot;:0,&quot;rounded&quot;:0};fontSize=9;" vertex="1" parent="8OJiHxa9IOpqiTdq25le-2">
          <mxGeometry x="45" y="70" width="10" height="230" as="geometry" />
        </mxCell>
        <mxCell id="8OJiHxa9IOpqiTdq25le-4" value="Back End" style="shape=umlLifeline;perimeter=lifelinePerimeter;whiteSpace=wrap;html=1;container=0;dropTarget=0;collapsible=0;recursiveResize=0;outlineConnect=0;portConstraint=eastwest;newEdgeStyle={&quot;edgeStyle&quot;:&quot;elbowEdgeStyle&quot;,&quot;elbow&quot;:&quot;vertical&quot;,&quot;curved&quot;:0,&quot;rounded&quot;:0};fontSize=9;" vertex="1" parent="8OJiHxa9IOpqiTdq25le-1">
          <mxGeometry x="220" y="160" width="100" height="400" as="geometry" />
        </mxCell>
        <mxCell id="8OJiHxa9IOpqiTdq25le-5" value="" style="html=1;points=[];perimeter=orthogonalPerimeter;outlineConnect=0;targetShapes=umlLifeline;portConstraint=eastwest;newEdgeStyle={&quot;edgeStyle&quot;:&quot;elbowEdgeStyle&quot;,&quot;elbow&quot;:&quot;vertical&quot;,&quot;curved&quot;:0,&quot;rounded&quot;:0};fontSize=9;" vertex="1" parent="8OJiHxa9IOpqiTdq25le-4">
          <mxGeometry x="45" y="80" width="10" height="140" as="geometry" />
        </mxCell>
        <mxCell id="8OJiHxa9IOpqiTdq25le-8" value="updateProfile()" style="html=1;verticalAlign=bottom;endArrow=block;edgeStyle=elbowEdgeStyle;elbow=vertical;curved=0;rounded=0;fontSize=9;" edge="1" parent="8OJiHxa9IOpqiTdq25le-1" source="8OJiHxa9IOpqiTdq25le-3" target="8OJiHxa9IOpqiTdq25le-5">
          <mxGeometry relative="1" as="geometry">
            <mxPoint x="195" y="250" as="sourcePoint" />
            <Array as="points">
              <mxPoint x="180" y="240" />
            </Array>
            <mxPoint as="offset" />
          </mxGeometry>
        </mxCell>
        <mxCell id="8OJiHxa9IOpqiTdq25le-9" value="Database" style="shape=umlLifeline;perimeter=lifelinePerimeter;whiteSpace=wrap;html=1;container=1;dropTarget=0;collapsible=0;recursiveResize=0;outlineConnect=0;portConstraint=eastwest;newEdgeStyle={&quot;edgeStyle&quot;:&quot;elbowEdgeStyle&quot;,&quot;elbow&quot;:&quot;vertical&quot;,&quot;curved&quot;:0,&quot;rounded&quot;:0};fontSize=9;" vertex="1" parent="8OJiHxa9IOpqiTdq25le-1">
          <mxGeometry x="400" y="160" width="100" height="400" as="geometry" />
        </mxCell>
        <mxCell id="8OJiHxa9IOpqiTdq25le-11" value="" style="shape=umlActor;verticalLabelPosition=bottom;verticalAlign=top;html=1;fontSize=9;" vertex="1" parent="8OJiHxa9IOpqiTdq25le-1">
          <mxGeometry x="75" y="100" width="30" height="60" as="geometry" />
        </mxCell>
        <mxCell id="8OJiHxa9IOpqiTdq25le-16" value="alt" style="shape=umlFrame;whiteSpace=wrap;html=1;pointerEvents=0;width=40;height=20;fontSize=9;" vertex="1" parent="8OJiHxa9IOpqiTdq25le-1">
          <mxGeometry x="50" y="300" width="430" height="180" as="geometry" />
        </mxCell>
        <mxCell id="8OJiHxa9IOpqiTdq25le-17" value="&lt;font style=&quot;font-size: 9px;&quot;&gt;[token valid and role = organization]&lt;/font&gt;" style="text;html=1;strokeColor=none;fillColor=none;align=left;verticalAlign=middle;whiteSpace=wrap;rounded=0;fontSize=9;" vertex="1" parent="8OJiHxa9IOpqiTdq25le-1">
          <mxGeometry x="275" y="300" width="165" height="20" as="geometry" />
        </mxCell>
        <mxCell id="8OJiHxa9IOpqiTdq25le-18" value="" style="endArrow=none;dashed=1;html=1;rounded=0;exitX=0.005;exitY=0.559;exitDx=0;exitDy=0;exitPerimeter=0;entryX=1;entryY=0.556;entryDx=0;entryDy=0;entryPerimeter=0;fontSize=9;" edge="1" parent="8OJiHxa9IOpqiTdq25le-1" source="8OJiHxa9IOpqiTdq25le-16" target="8OJiHxa9IOpqiTdq25le-16">
          <mxGeometry width="50" height="50" relative="1" as="geometry">
            <mxPoint x="220" y="390" as="sourcePoint" />
            <mxPoint x="270" y="340" as="targetPoint" />
          </mxGeometry>
        </mxCell>
        <mxCell id="8OJiHxa9IOpqiTdq25le-19" value="&lt;font style=&quot;font-size: 9px;&quot;&gt;[else]&lt;/font&gt;" style="text;html=1;strokeColor=none;fillColor=none;align=left;verticalAlign=middle;whiteSpace=wrap;rounded=0;fontSize=9;" vertex="1" parent="8OJiHxa9IOpqiTdq25le-1">
          <mxGeometry x="275" y="400" width="60" height="20" as="geometry" />
        </mxCell>
        <mxCell id="8OJiHxa9IOpqiTdq25le-20" style="edgeStyle=elbowEdgeStyle;rounded=0;orthogonalLoop=1;jettySize=auto;html=1;elbow=vertical;curved=0;fontFamily=Helvetica;fontSize=9;fontColor=default;dashed=1;" edge="1" parent="8OJiHxa9IOpqiTdq25le-1" source="8OJiHxa9IOpqiTdq25le-5" target="8OJiHxa9IOpqiTdq25le-3">
          <mxGeometry relative="1" as="geometry">
            <Array as="points">
              <mxPoint x="200" y="380" />
            </Array>
          </mxGeometry>
        </mxCell>
        <mxCell id="8OJiHxa9IOpqiTdq25le-21" value="success" style="edgeLabel;html=1;align=center;verticalAlign=middle;resizable=0;points=[];fontSize=9;fontFamily=Helvetica;fontColor=default;" vertex="1" connectable="0" parent="8OJiHxa9IOpqiTdq25le-20">
          <mxGeometry x="0.0292" y="2" relative="1" as="geometry">
            <mxPoint y="-12" as="offset" />
          </mxGeometry>
        </mxCell>
        <mxCell id="8OJiHxa9IOpqiTdq25le-22" style="edgeStyle=elbowEdgeStyle;rounded=0;orthogonalLoop=1;jettySize=auto;html=1;elbow=vertical;curved=0;fontFamily=Helvetica;fontSize=9;fontColor=default;dashed=1;" edge="1" parent="8OJiHxa9IOpqiTdq25le-1" source="8OJiHxa9IOpqiTdq25le-24" target="8OJiHxa9IOpqiTdq25le-3">
          <mxGeometry relative="1" as="geometry">
            <Array as="points">
              <mxPoint x="210" y="460" />
            </Array>
          </mxGeometry>
        </mxCell>
        <mxCell id="8OJiHxa9IOpqiTdq25le-23" value="error" style="edgeLabel;html=1;align=center;verticalAlign=middle;resizable=0;points=[];fontSize=9;fontFamily=Helvetica;fontColor=default;" vertex="1" connectable="0" parent="8OJiHxa9IOpqiTdq25le-22">
          <mxGeometry x="0.1996" y="3" relative="1" as="geometry">
            <mxPoint x="17" y="-13" as="offset" />
          </mxGeometry>
        </mxCell>
        <mxCell id="8OJiHxa9IOpqiTdq25le-24" value="" style="html=1;points=[];perimeter=orthogonalPerimeter;outlineConnect=0;targetShapes=umlLifeline;portConstraint=eastwest;newEdgeStyle={&quot;edgeStyle&quot;:&quot;elbowEdgeStyle&quot;,&quot;elbow&quot;:&quot;vertical&quot;,&quot;curved&quot;:0,&quot;rounded&quot;:0};labelBackgroundColor=default;fontFamily=Helvetica;fontSize=9;" vertex="1" parent="8OJiHxa9IOpqiTdq25le-1">
          <mxGeometry x="265" y="410" width="10" height="50" as="geometry" />
        </mxCell>
        <mxCell id="8OJiHxa9IOpqiTdq25le-25" style="rounded=0;orthogonalLoop=1;jettySize=auto;html=1;fontFamily=Helvetica;fontSize=9;fontColor=default;edgeStyle=orthogonalEdgeStyle;" edge="1" parent="8OJiHxa9IOpqiTdq25le-1" source="8OJiHxa9IOpqiTdq25le-24">
          <mxGeometry relative="1" as="geometry">
            <mxPoint x="275" y="442" as="sourcePoint" />
            <mxPoint x="275" y="452" as="targetPoint" />
            <Array as="points">
              <mxPoint x="300" y="430" />
            </Array>
          </mxGeometry>
        </mxCell>
        <mxCell id="8OJiHxa9IOpqiTdq25le-26" value="errorHandler()" style="edgeLabel;html=1;align=center;verticalAlign=middle;resizable=0;points=[];fontSize=9;fontFamily=Helvetica;fontColor=default;" vertex="1" connectable="0" parent="8OJiHxa9IOpqiTdq25le-25">
          <mxGeometry x="0.2308" relative="1" as="geometry">
            <mxPoint x="20" y="-9" as="offset" />
          </mxGeometry>
        </mxCell>
        <mxCell id="eh7G6SAL02uR2CzQFYzu-0" style="edgeStyle=elbowEdgeStyle;rounded=0;orthogonalLoop=1;jettySize=auto;html=1;fontFamily=Helvetica;fontSize=9;fontColor=default;exitX=1;exitY=0.643;exitDx=0;exitDy=0;exitPerimeter=0;" edge="1" parent="8OJiHxa9IOpqiTdq25le-1" target="8OJiHxa9IOpqiTdq25le-5">
          <mxGeometry relative="1" as="geometry">
            <mxPoint x="275" y="250" as="sourcePoint" />
            <mxPoint x="275" y="290" as="targetPoint" />
            <Array as="points">
              <mxPoint x="300" y="280" />
              <mxPoint x="300" y="270" />
              <mxPoint x="290" y="290" />
              <mxPoint x="290" y="270" />
              <mxPoint x="300" y="290" />
              <mxPoint x="300" y="280" />
              <mxPoint x="300" y="260" />
            </Array>
          </mxGeometry>
        </mxCell>
        <mxCell id="eh7G6SAL02uR2CzQFYzu-1" value="validateTokenAndRole()" style="edgeLabel;html=1;align=center;verticalAlign=middle;resizable=0;points=[];fontSize=9;fontFamily=Helvetica;fontColor=default;" vertex="1" connectable="0" parent="eh7G6SAL02uR2CzQFYzu-0">
          <mxGeometry x="-0.0049" y="-1" relative="1" as="geometry">
            <mxPoint x="31" as="offset" />
          </mxGeometry>
        </mxCell>
        <mxCell id="eh7G6SAL02uR2CzQFYzu-6" style="edgeStyle=elbowEdgeStyle;rounded=0;orthogonalLoop=1;jettySize=auto;html=1;elbow=vertical;curved=0;fontFamily=Helvetica;fontSize=9;fontColor=default;dashed=1;" edge="1" parent="8OJiHxa9IOpqiTdq25le-1" source="eh7G6SAL02uR2CzQFYzu-3" target="8OJiHxa9IOpqiTdq25le-5">
          <mxGeometry relative="1" as="geometry">
            <Array as="points">
              <mxPoint x="400" y="370" />
              <mxPoint x="370" y="360" />
            </Array>
          </mxGeometry>
        </mxCell>
        <mxCell id="eh7G6SAL02uR2CzQFYzu-7" value="success" style="edgeLabel;html=1;align=center;verticalAlign=middle;resizable=0;points=[];fontSize=9;fontFamily=Helvetica;fontColor=default;" vertex="1" connectable="0" parent="eh7G6SAL02uR2CzQFYzu-6">
          <mxGeometry x="-0.1953" y="1" relative="1" as="geometry">
            <mxPoint x="-19" y="-11" as="offset" />
          </mxGeometry>
        </mxCell>
        <mxCell id="eh7G6SAL02uR2CzQFYzu-3" value="" style="html=1;points=[];perimeter=orthogonalPerimeter;outlineConnect=0;targetShapes=umlLifeline;portConstraint=eastwest;newEdgeStyle={&quot;edgeStyle&quot;:&quot;elbowEdgeStyle&quot;,&quot;elbow&quot;:&quot;vertical&quot;,&quot;curved&quot;:0,&quot;rounded&quot;:0};labelBackgroundColor=default;fontFamily=Helvetica;fontSize=9;" vertex="1" parent="8OJiHxa9IOpqiTdq25le-1">
          <mxGeometry x="445" y="340" width="10" height="30" as="geometry" />
        </mxCell>
        <mxCell id="eh7G6SAL02uR2CzQFYzu-4" style="edgeStyle=elbowEdgeStyle;rounded=0;orthogonalLoop=1;jettySize=auto;html=1;elbow=vertical;curved=0;fontFamily=Helvetica;fontSize=9;fontColor=default;" edge="1" parent="8OJiHxa9IOpqiTdq25le-1" source="8OJiHxa9IOpqiTdq25le-5" target="eh7G6SAL02uR2CzQFYzu-3">
          <mxGeometry relative="1" as="geometry">
            <Array as="points">
              <mxPoint x="390" y="340" />
              <mxPoint x="410" y="330" />
            </Array>
          </mxGeometry>
        </mxCell>
        <mxCell id="eh7G6SAL02uR2CzQFYzu-5" value="updateOrganization()" style="edgeLabel;html=1;align=center;verticalAlign=middle;resizable=0;points=[];fontSize=9;fontFamily=Helvetica;fontColor=default;" vertex="1" connectable="0" parent="eh7G6SAL02uR2CzQFYzu-4">
          <mxGeometry x="0.0005" y="1" relative="1" as="geometry">
            <mxPoint y="-9" as="offset" />
          </mxGeometry>
        </mxCell>
      </root>
    </mxGraphModel>
  </diagram>
  <diagram name="Ind Update Profile" id="lYArSYqeZ4UbmcOyipLN">
    <mxGraphModel dx="1134" dy="681" grid="1" gridSize="10" guides="1" tooltips="1" connect="1" arrows="1" fold="1" page="1" pageScale="1" pageWidth="850" pageHeight="1100" math="0" shadow="0">
      <root>
        <mxCell id="ECYKbvmIe3fHNnBK0KBW-0" />
        <mxCell id="ECYKbvmIe3fHNnBK0KBW-1" parent="ECYKbvmIe3fHNnBK0KBW-0" />
        <mxCell id="ECYKbvmIe3fHNnBK0KBW-2" value="Individual" style="shape=umlLifeline;perimeter=lifelinePerimeter;whiteSpace=wrap;html=1;container=0;dropTarget=0;collapsible=0;recursiveResize=0;outlineConnect=0;portConstraint=eastwest;newEdgeStyle={&quot;edgeStyle&quot;:&quot;elbowEdgeStyle&quot;,&quot;elbow&quot;:&quot;vertical&quot;,&quot;curved&quot;:0,&quot;rounded&quot;:0};fontSize=9;" vertex="1" parent="ECYKbvmIe3fHNnBK0KBW-1">
          <mxGeometry x="40" y="160" width="100" height="400" as="geometry" />
        </mxCell>
        <mxCell id="ECYKbvmIe3fHNnBK0KBW-3" value="" style="html=1;points=[];perimeter=orthogonalPerimeter;outlineConnect=0;targetShapes=umlLifeline;portConstraint=eastwest;newEdgeStyle={&quot;edgeStyle&quot;:&quot;elbowEdgeStyle&quot;,&quot;elbow&quot;:&quot;vertical&quot;,&quot;curved&quot;:0,&quot;rounded&quot;:0};fontSize=9;" vertex="1" parent="ECYKbvmIe3fHNnBK0KBW-2">
          <mxGeometry x="45" y="70" width="10" height="230" as="geometry" />
        </mxCell>
        <mxCell id="ECYKbvmIe3fHNnBK0KBW-4" value="Back End" style="shape=umlLifeline;perimeter=lifelinePerimeter;whiteSpace=wrap;html=1;container=0;dropTarget=0;collapsible=0;recursiveResize=0;outlineConnect=0;portConstraint=eastwest;newEdgeStyle={&quot;edgeStyle&quot;:&quot;elbowEdgeStyle&quot;,&quot;elbow&quot;:&quot;vertical&quot;,&quot;curved&quot;:0,&quot;rounded&quot;:0};fontSize=9;" vertex="1" parent="ECYKbvmIe3fHNnBK0KBW-1">
          <mxGeometry x="220" y="160" width="100" height="400" as="geometry" />
        </mxCell>
        <mxCell id="ECYKbvmIe3fHNnBK0KBW-5" value="" style="html=1;points=[];perimeter=orthogonalPerimeter;outlineConnect=0;targetShapes=umlLifeline;portConstraint=eastwest;newEdgeStyle={&quot;edgeStyle&quot;:&quot;elbowEdgeStyle&quot;,&quot;elbow&quot;:&quot;vertical&quot;,&quot;curved&quot;:0,&quot;rounded&quot;:0};fontSize=9;" vertex="1" parent="ECYKbvmIe3fHNnBK0KBW-4">
          <mxGeometry x="45" y="80" width="10" height="140" as="geometry" />
        </mxCell>
        <mxCell id="ECYKbvmIe3fHNnBK0KBW-6" value="updateProfile()" style="html=1;verticalAlign=bottom;endArrow=block;edgeStyle=elbowEdgeStyle;elbow=vertical;curved=0;rounded=0;fontSize=9;" edge="1" parent="ECYKbvmIe3fHNnBK0KBW-1" source="ECYKbvmIe3fHNnBK0KBW-3" target="ECYKbvmIe3fHNnBK0KBW-5">
          <mxGeometry relative="1" as="geometry">
            <mxPoint x="195" y="250" as="sourcePoint" />
            <Array as="points">
              <mxPoint x="180" y="240" />
            </Array>
            <mxPoint as="offset" />
          </mxGeometry>
        </mxCell>
        <mxCell id="ECYKbvmIe3fHNnBK0KBW-7" value="Database" style="shape=umlLifeline;perimeter=lifelinePerimeter;whiteSpace=wrap;html=1;container=1;dropTarget=0;collapsible=0;recursiveResize=0;outlineConnect=0;portConstraint=eastwest;newEdgeStyle={&quot;edgeStyle&quot;:&quot;elbowEdgeStyle&quot;,&quot;elbow&quot;:&quot;vertical&quot;,&quot;curved&quot;:0,&quot;rounded&quot;:0};fontSize=9;" vertex="1" parent="ECYKbvmIe3fHNnBK0KBW-1">
          <mxGeometry x="400" y="160" width="100" height="400" as="geometry" />
        </mxCell>
        <mxCell id="ECYKbvmIe3fHNnBK0KBW-8" value="" style="shape=umlActor;verticalLabelPosition=bottom;verticalAlign=top;html=1;fontSize=9;" vertex="1" parent="ECYKbvmIe3fHNnBK0KBW-1">
          <mxGeometry x="75" y="100" width="30" height="60" as="geometry" />
        </mxCell>
        <mxCell id="ECYKbvmIe3fHNnBK0KBW-9" value="alt" style="shape=umlFrame;whiteSpace=wrap;html=1;pointerEvents=0;width=40;height=20;fontSize=9;" vertex="1" parent="ECYKbvmIe3fHNnBK0KBW-1">
          <mxGeometry x="50" y="300" width="430" height="180" as="geometry" />
        </mxCell>
        <mxCell id="ECYKbvmIe3fHNnBK0KBW-10" value="&lt;font style=&quot;font-size: 9px;&quot;&gt;[token valid and role = individual]&lt;/font&gt;" style="text;html=1;strokeColor=none;fillColor=none;align=left;verticalAlign=middle;whiteSpace=wrap;rounded=0;fontSize=9;" vertex="1" parent="ECYKbvmIe3fHNnBK0KBW-1">
          <mxGeometry x="275" y="300" width="165" height="20" as="geometry" />
        </mxCell>
        <mxCell id="ECYKbvmIe3fHNnBK0KBW-11" value="" style="endArrow=none;dashed=1;html=1;rounded=0;exitX=0.005;exitY=0.559;exitDx=0;exitDy=0;exitPerimeter=0;entryX=1;entryY=0.556;entryDx=0;entryDy=0;entryPerimeter=0;fontSize=9;" edge="1" parent="ECYKbvmIe3fHNnBK0KBW-1" source="ECYKbvmIe3fHNnBK0KBW-9" target="ECYKbvmIe3fHNnBK0KBW-9">
          <mxGeometry width="50" height="50" relative="1" as="geometry">
            <mxPoint x="220" y="390" as="sourcePoint" />
            <mxPoint x="270" y="340" as="targetPoint" />
          </mxGeometry>
        </mxCell>
        <mxCell id="ECYKbvmIe3fHNnBK0KBW-12" value="&lt;font style=&quot;font-size: 9px;&quot;&gt;[else]&lt;/font&gt;" style="text;html=1;strokeColor=none;fillColor=none;align=left;verticalAlign=middle;whiteSpace=wrap;rounded=0;fontSize=9;" vertex="1" parent="ECYKbvmIe3fHNnBK0KBW-1">
          <mxGeometry x="275" y="400" width="60" height="20" as="geometry" />
        </mxCell>
        <mxCell id="ECYKbvmIe3fHNnBK0KBW-13" style="edgeStyle=elbowEdgeStyle;rounded=0;orthogonalLoop=1;jettySize=auto;html=1;elbow=vertical;curved=0;fontFamily=Helvetica;fontSize=9;fontColor=default;dashed=1;" edge="1" parent="ECYKbvmIe3fHNnBK0KBW-1" source="ECYKbvmIe3fHNnBK0KBW-5" target="ECYKbvmIe3fHNnBK0KBW-3">
          <mxGeometry relative="1" as="geometry">
            <Array as="points">
              <mxPoint x="200" y="380" />
            </Array>
          </mxGeometry>
        </mxCell>
        <mxCell id="ECYKbvmIe3fHNnBK0KBW-14" value="success" style="edgeLabel;html=1;align=center;verticalAlign=middle;resizable=0;points=[];fontSize=9;fontFamily=Helvetica;fontColor=default;" vertex="1" connectable="0" parent="ECYKbvmIe3fHNnBK0KBW-13">
          <mxGeometry x="0.0292" y="2" relative="1" as="geometry">
            <mxPoint y="-12" as="offset" />
          </mxGeometry>
        </mxCell>
        <mxCell id="ECYKbvmIe3fHNnBK0KBW-15" style="edgeStyle=elbowEdgeStyle;rounded=0;orthogonalLoop=1;jettySize=auto;html=1;elbow=vertical;curved=0;fontFamily=Helvetica;fontSize=9;fontColor=default;dashed=1;" edge="1" parent="ECYKbvmIe3fHNnBK0KBW-1" source="ECYKbvmIe3fHNnBK0KBW-17" target="ECYKbvmIe3fHNnBK0KBW-3">
          <mxGeometry relative="1" as="geometry">
            <Array as="points">
              <mxPoint x="210" y="460" />
            </Array>
          </mxGeometry>
        </mxCell>
        <mxCell id="ECYKbvmIe3fHNnBK0KBW-16" value="error" style="edgeLabel;html=1;align=center;verticalAlign=middle;resizable=0;points=[];fontSize=9;fontFamily=Helvetica;fontColor=default;" vertex="1" connectable="0" parent="ECYKbvmIe3fHNnBK0KBW-15">
          <mxGeometry x="0.1996" y="3" relative="1" as="geometry">
            <mxPoint x="17" y="-13" as="offset" />
          </mxGeometry>
        </mxCell>
        <mxCell id="ECYKbvmIe3fHNnBK0KBW-17" value="" style="html=1;points=[];perimeter=orthogonalPerimeter;outlineConnect=0;targetShapes=umlLifeline;portConstraint=eastwest;newEdgeStyle={&quot;edgeStyle&quot;:&quot;elbowEdgeStyle&quot;,&quot;elbow&quot;:&quot;vertical&quot;,&quot;curved&quot;:0,&quot;rounded&quot;:0};labelBackgroundColor=default;fontFamily=Helvetica;fontSize=9;" vertex="1" parent="ECYKbvmIe3fHNnBK0KBW-1">
          <mxGeometry x="265" y="410" width="10" height="50" as="geometry" />
        </mxCell>
        <mxCell id="ECYKbvmIe3fHNnBK0KBW-18" style="rounded=0;orthogonalLoop=1;jettySize=auto;html=1;fontFamily=Helvetica;fontSize=9;fontColor=default;edgeStyle=orthogonalEdgeStyle;" edge="1" parent="ECYKbvmIe3fHNnBK0KBW-1" source="ECYKbvmIe3fHNnBK0KBW-17">
          <mxGeometry relative="1" as="geometry">
            <mxPoint x="275" y="442" as="sourcePoint" />
            <mxPoint x="275" y="452" as="targetPoint" />
            <Array as="points">
              <mxPoint x="300" y="430" />
            </Array>
          </mxGeometry>
        </mxCell>
        <mxCell id="ECYKbvmIe3fHNnBK0KBW-19" value="errorHandler()" style="edgeLabel;html=1;align=center;verticalAlign=middle;resizable=0;points=[];fontSize=9;fontFamily=Helvetica;fontColor=default;" vertex="1" connectable="0" parent="ECYKbvmIe3fHNnBK0KBW-18">
          <mxGeometry x="0.2308" relative="1" as="geometry">
            <mxPoint x="20" y="-9" as="offset" />
          </mxGeometry>
        </mxCell>
        <mxCell id="ECYKbvmIe3fHNnBK0KBW-20" style="edgeStyle=elbowEdgeStyle;rounded=0;orthogonalLoop=1;jettySize=auto;html=1;fontFamily=Helvetica;fontSize=9;fontColor=default;exitX=1;exitY=0.643;exitDx=0;exitDy=0;exitPerimeter=0;" edge="1" parent="ECYKbvmIe3fHNnBK0KBW-1" target="ECYKbvmIe3fHNnBK0KBW-5">
          <mxGeometry relative="1" as="geometry">
            <mxPoint x="275" y="250" as="sourcePoint" />
            <mxPoint x="275" y="290" as="targetPoint" />
            <Array as="points">
              <mxPoint x="300" y="280" />
              <mxPoint x="300" y="270" />
              <mxPoint x="290" y="290" />
              <mxPoint x="290" y="270" />
              <mxPoint x="300" y="290" />
              <mxPoint x="300" y="280" />
              <mxPoint x="300" y="260" />
            </Array>
          </mxGeometry>
        </mxCell>
        <mxCell id="ECYKbvmIe3fHNnBK0KBW-21" value="validateTokenAndRole()" style="edgeLabel;html=1;align=center;verticalAlign=middle;resizable=0;points=[];fontSize=9;fontFamily=Helvetica;fontColor=default;" vertex="1" connectable="0" parent="ECYKbvmIe3fHNnBK0KBW-20">
          <mxGeometry x="-0.0049" y="-1" relative="1" as="geometry">
            <mxPoint x="31" as="offset" />
          </mxGeometry>
        </mxCell>
        <mxCell id="ECYKbvmIe3fHNnBK0KBW-22" style="edgeStyle=elbowEdgeStyle;rounded=0;orthogonalLoop=1;jettySize=auto;html=1;elbow=vertical;curved=0;fontFamily=Helvetica;fontSize=9;fontColor=default;dashed=1;" edge="1" parent="ECYKbvmIe3fHNnBK0KBW-1" source="ECYKbvmIe3fHNnBK0KBW-24" target="ECYKbvmIe3fHNnBK0KBW-5">
          <mxGeometry relative="1" as="geometry">
            <Array as="points">
              <mxPoint x="400" y="370" />
              <mxPoint x="370" y="360" />
            </Array>
          </mxGeometry>
        </mxCell>
        <mxCell id="ECYKbvmIe3fHNnBK0KBW-23" value="success" style="edgeLabel;html=1;align=center;verticalAlign=middle;resizable=0;points=[];fontSize=9;fontFamily=Helvetica;fontColor=default;" vertex="1" connectable="0" parent="ECYKbvmIe3fHNnBK0KBW-22">
          <mxGeometry x="-0.1953" y="1" relative="1" as="geometry">
            <mxPoint x="-19" y="-11" as="offset" />
          </mxGeometry>
        </mxCell>
        <mxCell id="ECYKbvmIe3fHNnBK0KBW-24" value="" style="html=1;points=[];perimeter=orthogonalPerimeter;outlineConnect=0;targetShapes=umlLifeline;portConstraint=eastwest;newEdgeStyle={&quot;edgeStyle&quot;:&quot;elbowEdgeStyle&quot;,&quot;elbow&quot;:&quot;vertical&quot;,&quot;curved&quot;:0,&quot;rounded&quot;:0};labelBackgroundColor=default;fontFamily=Helvetica;fontSize=9;" vertex="1" parent="ECYKbvmIe3fHNnBK0KBW-1">
          <mxGeometry x="445" y="340" width="10" height="30" as="geometry" />
        </mxCell>
        <mxCell id="ECYKbvmIe3fHNnBK0KBW-25" style="edgeStyle=elbowEdgeStyle;rounded=0;orthogonalLoop=1;jettySize=auto;html=1;elbow=vertical;curved=0;fontFamily=Helvetica;fontSize=9;fontColor=default;" edge="1" parent="ECYKbvmIe3fHNnBK0KBW-1" source="ECYKbvmIe3fHNnBK0KBW-5" target="ECYKbvmIe3fHNnBK0KBW-24">
          <mxGeometry relative="1" as="geometry">
            <Array as="points">
              <mxPoint x="390" y="340" />
              <mxPoint x="410" y="330" />
            </Array>
          </mxGeometry>
        </mxCell>
        <mxCell id="ECYKbvmIe3fHNnBK0KBW-26" value="updateIndividual()" style="edgeLabel;html=1;align=center;verticalAlign=middle;resizable=0;points=[];fontSize=9;fontFamily=Helvetica;fontColor=default;" vertex="1" connectable="0" parent="ECYKbvmIe3fHNnBK0KBW-25">
          <mxGeometry x="0.0005" y="1" relative="1" as="geometry">
            <mxPoint y="-9" as="offset" />
          </mxGeometry>
        </mxCell>
      </root>
    </mxGraphModel>
  </diagram>
  <diagram name="Ind Upload Doc" id="aMDmuvQ0dImdEwnwHfKY">
    <mxGraphModel dx="934" dy="561" grid="1" gridSize="10" guides="1" tooltips="1" connect="1" arrows="1" fold="1" page="1" pageScale="1" pageWidth="850" pageHeight="1100" math="0" shadow="0">
      <root>
        <mxCell id="SOEUOMoCN2v5iltGv4F1-0" />
        <mxCell id="SOEUOMoCN2v5iltGv4F1-1" parent="SOEUOMoCN2v5iltGv4F1-0" />
        <mxCell id="SOEUOMoCN2v5iltGv4F1-2" value="Individual" style="shape=umlLifeline;perimeter=lifelinePerimeter;whiteSpace=wrap;html=1;container=0;dropTarget=0;collapsible=0;recursiveResize=0;outlineConnect=0;portConstraint=eastwest;newEdgeStyle={&quot;edgeStyle&quot;:&quot;elbowEdgeStyle&quot;,&quot;elbow&quot;:&quot;vertical&quot;,&quot;curved&quot;:0,&quot;rounded&quot;:0};fontSize=9;" vertex="1" parent="SOEUOMoCN2v5iltGv4F1-1">
          <mxGeometry x="40" y="80" width="100" height="480" as="geometry" />
        </mxCell>
        <mxCell id="SOEUOMoCN2v5iltGv4F1-3" value="" style="html=1;points=[];perimeter=orthogonalPerimeter;outlineConnect=0;targetShapes=umlLifeline;portConstraint=eastwest;newEdgeStyle={&quot;edgeStyle&quot;:&quot;elbowEdgeStyle&quot;,&quot;elbow&quot;:&quot;vertical&quot;,&quot;curved&quot;:0,&quot;rounded&quot;:0};fontSize=9;" vertex="1" parent="SOEUOMoCN2v5iltGv4F1-2">
          <mxGeometry x="45" y="70" width="10" height="400" as="geometry" />
        </mxCell>
        <mxCell id="SOEUOMoCN2v5iltGv4F1-4" value="Back End" style="shape=umlLifeline;perimeter=lifelinePerimeter;whiteSpace=wrap;html=1;container=0;dropTarget=0;collapsible=0;recursiveResize=0;outlineConnect=0;portConstraint=eastwest;newEdgeStyle={&quot;edgeStyle&quot;:&quot;elbowEdgeStyle&quot;,&quot;elbow&quot;:&quot;vertical&quot;,&quot;curved&quot;:0,&quot;rounded&quot;:0};fontSize=9;" vertex="1" parent="SOEUOMoCN2v5iltGv4F1-1">
          <mxGeometry x="220" y="80" width="100" height="480" as="geometry" />
        </mxCell>
        <mxCell id="SOEUOMoCN2v5iltGv4F1-5" value="" style="html=1;points=[];perimeter=orthogonalPerimeter;outlineConnect=0;targetShapes=umlLifeline;portConstraint=eastwest;newEdgeStyle={&quot;edgeStyle&quot;:&quot;elbowEdgeStyle&quot;,&quot;elbow&quot;:&quot;vertical&quot;,&quot;curved&quot;:0,&quot;rounded&quot;:0};fontSize=9;" vertex="1" parent="SOEUOMoCN2v5iltGv4F1-4">
          <mxGeometry x="45" y="80" width="10" height="300" as="geometry" />
        </mxCell>
        <mxCell id="SOEUOMoCN2v5iltGv4F1-17" value="" style="html=1;points=[];perimeter=orthogonalPerimeter;outlineConnect=0;targetShapes=umlLifeline;portConstraint=eastwest;newEdgeStyle={&quot;edgeStyle&quot;:&quot;elbowEdgeStyle&quot;,&quot;elbow&quot;:&quot;vertical&quot;,&quot;curved&quot;:0,&quot;rounded&quot;:0};labelBackgroundColor=default;fontFamily=Helvetica;fontSize=9;" vertex="1" parent="SOEUOMoCN2v5iltGv4F1-4">
          <mxGeometry x="45" y="414" width="10" height="50" as="geometry" />
        </mxCell>
        <mxCell id="SOEUOMoCN2v5iltGv4F1-18" style="rounded=0;orthogonalLoop=1;jettySize=auto;html=1;fontFamily=Helvetica;fontSize=9;fontColor=default;edgeStyle=orthogonalEdgeStyle;" edge="1" parent="SOEUOMoCN2v5iltGv4F1-4" source="SOEUOMoCN2v5iltGv4F1-17" target="SOEUOMoCN2v5iltGv4F1-17">
          <mxGeometry relative="1" as="geometry">
            <mxPoint x="55" y="424" as="sourcePoint" />
            <mxPoint x="60" y="441" as="targetPoint" />
            <Array as="points">
              <mxPoint x="90" y="424" />
              <mxPoint x="90" y="441" />
            </Array>
          </mxGeometry>
        </mxCell>
        <mxCell id="SOEUOMoCN2v5iltGv4F1-19" value="errorHandler()" style="edgeLabel;html=1;align=center;verticalAlign=middle;resizable=0;points=[];fontSize=9;fontFamily=Helvetica;fontColor=default;" vertex="1" connectable="0" parent="SOEUOMoCN2v5iltGv4F1-18">
          <mxGeometry x="0.2308" relative="1" as="geometry">
            <mxPoint x="20" y="-9" as="offset" />
          </mxGeometry>
        </mxCell>
        <mxCell id="SOEUOMoCN2v5iltGv4F1-6" value="uploadDocument()" style="html=1;verticalAlign=bottom;endArrow=block;edgeStyle=elbowEdgeStyle;elbow=vertical;curved=0;rounded=0;fontSize=9;" edge="1" parent="SOEUOMoCN2v5iltGv4F1-1" source="SOEUOMoCN2v5iltGv4F1-3" target="SOEUOMoCN2v5iltGv4F1-5">
          <mxGeometry relative="1" as="geometry">
            <mxPoint x="195" y="250" as="sourcePoint" />
            <Array as="points">
              <mxPoint x="210" y="160" />
              <mxPoint x="180" y="240" />
            </Array>
            <mxPoint as="offset" />
          </mxGeometry>
        </mxCell>
        <mxCell id="SOEUOMoCN2v5iltGv4F1-7" value="Database" style="shape=umlLifeline;perimeter=lifelinePerimeter;whiteSpace=wrap;html=1;container=1;dropTarget=0;collapsible=0;recursiveResize=0;outlineConnect=0;portConstraint=eastwest;newEdgeStyle={&quot;edgeStyle&quot;:&quot;elbowEdgeStyle&quot;,&quot;elbow&quot;:&quot;vertical&quot;,&quot;curved&quot;:0,&quot;rounded&quot;:0};fontSize=9;" vertex="1" parent="SOEUOMoCN2v5iltGv4F1-1">
          <mxGeometry x="400" y="80" width="100" height="480" as="geometry" />
        </mxCell>
        <mxCell id="SOEUOMoCN2v5iltGv4F1-8" value="" style="shape=umlActor;verticalLabelPosition=bottom;verticalAlign=top;html=1;fontSize=9;" vertex="1" parent="SOEUOMoCN2v5iltGv4F1-1">
          <mxGeometry x="75" y="20" width="30" height="60" as="geometry" />
        </mxCell>
        <mxCell id="SOEUOMoCN2v5iltGv4F1-9" value="alt" style="shape=umlFrame;whiteSpace=wrap;html=1;pointerEvents=0;width=40;height=20;fontSize=9;" vertex="1" parent="SOEUOMoCN2v5iltGv4F1-1">
          <mxGeometry x="50" y="290" width="630" height="270" as="geometry" />
        </mxCell>
        <mxCell id="SOEUOMoCN2v5iltGv4F1-10" value="&lt;font style=&quot;font-size: 9px;&quot;&gt;[token valid &amp;amp; role = individual &amp;amp; doc valid]&lt;/font&gt;" style="text;html=1;strokeColor=none;fillColor=none;align=left;verticalAlign=middle;whiteSpace=wrap;rounded=0;fontSize=9;" vertex="1" parent="SOEUOMoCN2v5iltGv4F1-1">
          <mxGeometry x="275" y="300" width="175" height="20" as="geometry" />
        </mxCell>
        <mxCell id="SOEUOMoCN2v5iltGv4F1-11" value="" style="endArrow=none;dashed=1;html=1;rounded=0;entryX=1.001;entryY=0.704;entryDx=0;entryDy=0;entryPerimeter=0;fontSize=9;" edge="1" parent="SOEUOMoCN2v5iltGv4F1-1" target="SOEUOMoCN2v5iltGv4F1-9">
          <mxGeometry width="50" height="50" relative="1" as="geometry">
            <mxPoint x="50" y="480" as="sourcePoint" />
            <mxPoint x="480" y="481.56000000000006" as="targetPoint" />
          </mxGeometry>
        </mxCell>
        <mxCell id="SOEUOMoCN2v5iltGv4F1-12" value="&lt;font style=&quot;font-size: 9px;&quot;&gt;[else]&lt;/font&gt;" style="text;html=1;strokeColor=none;fillColor=none;align=left;verticalAlign=middle;whiteSpace=wrap;rounded=0;fontSize=9;" vertex="1" parent="SOEUOMoCN2v5iltGv4F1-1">
          <mxGeometry x="275" y="484" width="60" height="20" as="geometry" />
        </mxCell>
        <mxCell id="SOEUOMoCN2v5iltGv4F1-13" style="edgeStyle=elbowEdgeStyle;rounded=0;orthogonalLoop=1;jettySize=auto;html=1;elbow=vertical;curved=0;fontFamily=Helvetica;fontSize=9;fontColor=default;dashed=1;" edge="1" parent="SOEUOMoCN2v5iltGv4F1-1" source="SOEUOMoCN2v5iltGv4F1-5" target="SOEUOMoCN2v5iltGv4F1-3">
          <mxGeometry relative="1" as="geometry">
            <Array as="points">
              <mxPoint x="180" y="460" />
              <mxPoint x="200" y="380" />
            </Array>
          </mxGeometry>
        </mxCell>
        <mxCell id="SOEUOMoCN2v5iltGv4F1-14" value="success" style="edgeLabel;html=1;align=center;verticalAlign=middle;resizable=0;points=[];fontSize=9;fontFamily=Helvetica;fontColor=default;" vertex="1" connectable="0" parent="SOEUOMoCN2v5iltGv4F1-13">
          <mxGeometry x="0.0292" y="2" relative="1" as="geometry">
            <mxPoint y="-12" as="offset" />
          </mxGeometry>
        </mxCell>
        <mxCell id="SOEUOMoCN2v5iltGv4F1-15" style="edgeStyle=elbowEdgeStyle;rounded=0;orthogonalLoop=1;jettySize=auto;html=1;elbow=vertical;curved=0;fontFamily=Helvetica;fontSize=9;fontColor=default;dashed=1;" edge="1" parent="SOEUOMoCN2v5iltGv4F1-1" source="SOEUOMoCN2v5iltGv4F1-17">
          <mxGeometry relative="1" as="geometry">
            <mxPoint x="95" y="544" as="targetPoint" />
            <Array as="points">
              <mxPoint x="210" y="544" />
            </Array>
          </mxGeometry>
        </mxCell>
        <mxCell id="SOEUOMoCN2v5iltGv4F1-16" value="error" style="edgeLabel;html=1;align=center;verticalAlign=middle;resizable=0;points=[];fontSize=9;fontFamily=Helvetica;fontColor=default;" vertex="1" connectable="0" parent="SOEUOMoCN2v5iltGv4F1-15">
          <mxGeometry x="0.1996" y="3" relative="1" as="geometry">
            <mxPoint x="17" y="-13" as="offset" />
          </mxGeometry>
        </mxCell>
        <mxCell id="SOEUOMoCN2v5iltGv4F1-20" style="edgeStyle=elbowEdgeStyle;rounded=0;orthogonalLoop=1;jettySize=auto;html=1;fontFamily=Helvetica;fontSize=9;fontColor=default;exitX=1;exitY=0.643;exitDx=0;exitDy=0;exitPerimeter=0;" edge="1" parent="SOEUOMoCN2v5iltGv4F1-1">
          <mxGeometry relative="1" as="geometry">
            <mxPoint x="275" y="167" as="sourcePoint" />
            <mxPoint x="274.9999999999999" y="197" as="targetPoint" />
            <Array as="points">
              <mxPoint x="300" y="197" />
              <mxPoint x="300" y="187" />
              <mxPoint x="290" y="207" />
              <mxPoint x="290" y="187" />
              <mxPoint x="300" y="207" />
              <mxPoint x="300" y="197" />
              <mxPoint x="300" y="177" />
            </Array>
          </mxGeometry>
        </mxCell>
        <mxCell id="SOEUOMoCN2v5iltGv4F1-21" value="validateTokenAndRole()" style="edgeLabel;html=1;align=center;verticalAlign=middle;resizable=0;points=[];fontSize=9;fontFamily=Helvetica;fontColor=default;" vertex="1" connectable="0" parent="SOEUOMoCN2v5iltGv4F1-20">
          <mxGeometry x="-0.0049" y="-1" relative="1" as="geometry">
            <mxPoint x="31" as="offset" />
          </mxGeometry>
        </mxCell>
        <mxCell id="SOEUOMoCN2v5iltGv4F1-22" style="edgeStyle=elbowEdgeStyle;rounded=0;orthogonalLoop=1;jettySize=auto;html=1;elbow=vertical;curved=0;fontFamily=Helvetica;fontSize=9;fontColor=default;dashed=1;" edge="1" parent="SOEUOMoCN2v5iltGv4F1-1" source="SOEUOMoCN2v5iltGv4F1-24">
          <mxGeometry relative="1" as="geometry">
            <mxPoint x="275" y="388" as="targetPoint" />
            <Array as="points">
              <mxPoint x="400" y="388" />
              <mxPoint x="370" y="378" />
            </Array>
          </mxGeometry>
        </mxCell>
        <mxCell id="SOEUOMoCN2v5iltGv4F1-23" value="success" style="edgeLabel;html=1;align=center;verticalAlign=middle;resizable=0;points=[];fontSize=9;fontFamily=Helvetica;fontColor=default;" vertex="1" connectable="0" parent="SOEUOMoCN2v5iltGv4F1-22">
          <mxGeometry x="-0.1953" y="1" relative="1" as="geometry">
            <mxPoint x="-19" y="-11" as="offset" />
          </mxGeometry>
        </mxCell>
        <mxCell id="SOEUOMoCN2v5iltGv4F1-24" value="" style="html=1;points=[];perimeter=orthogonalPerimeter;outlineConnect=0;targetShapes=umlLifeline;portConstraint=eastwest;newEdgeStyle={&quot;edgeStyle&quot;:&quot;elbowEdgeStyle&quot;,&quot;elbow&quot;:&quot;vertical&quot;,&quot;curved&quot;:0,&quot;rounded&quot;:0};labelBackgroundColor=default;fontFamily=Helvetica;fontSize=9;" vertex="1" parent="SOEUOMoCN2v5iltGv4F1-1">
          <mxGeometry x="445" y="358" width="10" height="30" as="geometry" />
        </mxCell>
        <mxCell id="SOEUOMoCN2v5iltGv4F1-25" style="edgeStyle=elbowEdgeStyle;rounded=0;orthogonalLoop=1;jettySize=auto;html=1;elbow=vertical;curved=0;fontFamily=Helvetica;fontSize=9;fontColor=default;" edge="1" parent="SOEUOMoCN2v5iltGv4F1-1" target="SOEUOMoCN2v5iltGv4F1-24">
          <mxGeometry relative="1" as="geometry">
            <mxPoint x="275" y="358" as="sourcePoint" />
            <Array as="points">
              <mxPoint x="390" y="358" />
              <mxPoint x="410" y="348" />
            </Array>
          </mxGeometry>
        </mxCell>
        <mxCell id="SOEUOMoCN2v5iltGv4F1-26" value="updateDocStatus()" style="edgeLabel;html=1;align=center;verticalAlign=middle;resizable=0;points=[];fontSize=9;fontFamily=Helvetica;fontColor=default;" vertex="1" connectable="0" parent="SOEUOMoCN2v5iltGv4F1-25">
          <mxGeometry x="0.0005" y="1" relative="1" as="geometry">
            <mxPoint y="-9" as="offset" />
          </mxGeometry>
        </mxCell>
        <mxCell id="mLnHu4RfCkzIw2IPigb9-0" value="Storage" style="shape=umlLifeline;perimeter=lifelinePerimeter;whiteSpace=wrap;html=1;container=1;dropTarget=0;collapsible=0;recursiveResize=0;outlineConnect=0;portConstraint=eastwest;newEdgeStyle={&quot;edgeStyle&quot;:&quot;elbowEdgeStyle&quot;,&quot;elbow&quot;:&quot;vertical&quot;,&quot;curved&quot;:0,&quot;rounded&quot;:0};labelBackgroundColor=default;fontFamily=Helvetica;fontSize=9;fontColor=default;fillColor=none;gradientColor=none;" vertex="1" parent="SOEUOMoCN2v5iltGv4F1-1">
          <mxGeometry x="580" y="80" width="100" height="480" as="geometry" />
        </mxCell>
        <mxCell id="T-icWDelBlq_k7nsujLP-2" value="" style="html=1;points=[];perimeter=orthogonalPerimeter;outlineConnect=0;targetShapes=umlLifeline;portConstraint=eastwest;newEdgeStyle={&quot;edgeStyle&quot;:&quot;elbowEdgeStyle&quot;,&quot;elbow&quot;:&quot;vertical&quot;,&quot;curved&quot;:0,&quot;rounded&quot;:0};labelBackgroundColor=default;fontFamily=Helvetica;fontSize=9;" vertex="1" parent="mLnHu4RfCkzIw2IPigb9-0">
          <mxGeometry x="45" y="330" width="10" height="30" as="geometry" />
        </mxCell>
        <mxCell id="T-icWDelBlq_k7nsujLP-0" style="edgeStyle=elbowEdgeStyle;rounded=0;orthogonalLoop=1;jettySize=auto;html=1;fontFamily=Helvetica;fontSize=9;fontColor=default;exitX=1;exitY=0.643;exitDx=0;exitDy=0;exitPerimeter=0;" edge="1" parent="SOEUOMoCN2v5iltGv4F1-1">
          <mxGeometry relative="1" as="geometry">
            <mxPoint x="275" y="227" as="sourcePoint" />
            <mxPoint x="274.9999999999999" y="257" as="targetPoint" />
            <Array as="points">
              <mxPoint x="300" y="257" />
              <mxPoint x="300" y="247" />
              <mxPoint x="290" y="267" />
              <mxPoint x="290" y="247" />
              <mxPoint x="300" y="267" />
              <mxPoint x="300" y="257" />
              <mxPoint x="300" y="237" />
            </Array>
          </mxGeometry>
        </mxCell>
        <mxCell id="T-icWDelBlq_k7nsujLP-1" value="validateDocumentSizeAndType()" style="edgeLabel;html=1;align=center;verticalAlign=middle;resizable=0;points=[];fontSize=9;fontFamily=Helvetica;fontColor=default;" vertex="1" connectable="0" parent="T-icWDelBlq_k7nsujLP-0">
          <mxGeometry x="-0.0049" y="-1" relative="1" as="geometry">
            <mxPoint x="51" as="offset" />
          </mxGeometry>
        </mxCell>
        <mxCell id="T-icWDelBlq_k7nsujLP-3" style="edgeStyle=elbowEdgeStyle;rounded=0;orthogonalLoop=1;jettySize=auto;html=1;elbow=vertical;curved=0;fontFamily=Helvetica;fontSize=9;fontColor=default;" edge="1" parent="SOEUOMoCN2v5iltGv4F1-1" source="SOEUOMoCN2v5iltGv4F1-5" target="T-icWDelBlq_k7nsujLP-2">
          <mxGeometry relative="1" as="geometry">
            <mxPoint x="275" y="410" as="sourcePoint" />
            <mxPoint x="445" y="410" as="targetPoint" />
            <Array as="points">
              <mxPoint x="420" y="410" />
              <mxPoint x="390" y="410" />
              <mxPoint x="410" y="400" />
            </Array>
          </mxGeometry>
        </mxCell>
        <mxCell id="T-icWDelBlq_k7nsujLP-4" value="saveDoc()" style="edgeLabel;html=1;align=center;verticalAlign=middle;resizable=0;points=[];fontSize=9;fontFamily=Helvetica;fontColor=default;" vertex="1" connectable="0" parent="T-icWDelBlq_k7nsujLP-3">
          <mxGeometry x="0.0005" y="1" relative="1" as="geometry">
            <mxPoint y="-9" as="offset" />
          </mxGeometry>
        </mxCell>
        <mxCell id="T-icWDelBlq_k7nsujLP-5" style="edgeStyle=elbowEdgeStyle;rounded=0;orthogonalLoop=1;jettySize=auto;html=1;elbow=vertical;curved=0;fontFamily=Helvetica;fontSize=9;fontColor=default;dashed=1;" edge="1" parent="SOEUOMoCN2v5iltGv4F1-1" source="T-icWDelBlq_k7nsujLP-2" target="SOEUOMoCN2v5iltGv4F1-5">
          <mxGeometry relative="1" as="geometry">
            <Array as="points">
              <mxPoint x="490" y="440" />
            </Array>
          </mxGeometry>
        </mxCell>
        <mxCell id="T-icWDelBlq_k7nsujLP-6" value="success" style="edgeLabel;html=1;align=center;verticalAlign=middle;resizable=0;points=[];fontSize=9;fontFamily=Helvetica;fontColor=default;" vertex="1" connectable="0" parent="T-icWDelBlq_k7nsujLP-5">
          <mxGeometry x="0.086" y="1" relative="1" as="geometry">
            <mxPoint x="15" y="-11" as="offset" />
          </mxGeometry>
        </mxCell>
      </root>
    </mxGraphModel>
  </diagram>
  <diagram name="Search Job" id="3TmXDZngpjxD8dnqU__I">
    <mxGraphModel dx="794" dy="477" grid="1" gridSize="10" guides="1" tooltips="1" connect="1" arrows="1" fold="1" page="1" pageScale="1" pageWidth="850" pageHeight="1100" math="0" shadow="0">
      <root>
        <mxCell id="w27s5DIsIYHP732n0ceW-0" />
        <mxCell id="w27s5DIsIYHP732n0ceW-1" parent="w27s5DIsIYHP732n0ceW-0" />
        <mxCell id="w27s5DIsIYHP732n0ceW-2" value="Individual" style="shape=umlLifeline;perimeter=lifelinePerimeter;whiteSpace=wrap;html=1;container=0;dropTarget=0;collapsible=0;recursiveResize=0;outlineConnect=0;portConstraint=eastwest;newEdgeStyle={&quot;edgeStyle&quot;:&quot;elbowEdgeStyle&quot;,&quot;elbow&quot;:&quot;vertical&quot;,&quot;curved&quot;:0,&quot;rounded&quot;:0};fontSize=9;" vertex="1" parent="w27s5DIsIYHP732n0ceW-1">
          <mxGeometry x="40" y="160" width="100" height="400" as="geometry" />
        </mxCell>
        <mxCell id="w27s5DIsIYHP732n0ceW-3" value="" style="html=1;points=[];perimeter=orthogonalPerimeter;outlineConnect=0;targetShapes=umlLifeline;portConstraint=eastwest;newEdgeStyle={&quot;edgeStyle&quot;:&quot;elbowEdgeStyle&quot;,&quot;elbow&quot;:&quot;vertical&quot;,&quot;curved&quot;:0,&quot;rounded&quot;:0};fontSize=9;" vertex="1" parent="w27s5DIsIYHP732n0ceW-2">
          <mxGeometry x="45" y="70" width="10" height="230" as="geometry" />
        </mxCell>
        <mxCell id="w27s5DIsIYHP732n0ceW-4" value="Back End" style="shape=umlLifeline;perimeter=lifelinePerimeter;whiteSpace=wrap;html=1;container=0;dropTarget=0;collapsible=0;recursiveResize=0;outlineConnect=0;portConstraint=eastwest;newEdgeStyle={&quot;edgeStyle&quot;:&quot;elbowEdgeStyle&quot;,&quot;elbow&quot;:&quot;vertical&quot;,&quot;curved&quot;:0,&quot;rounded&quot;:0};fontSize=9;" vertex="1" parent="w27s5DIsIYHP732n0ceW-1">
          <mxGeometry x="220" y="160" width="100" height="400" as="geometry" />
        </mxCell>
        <mxCell id="w27s5DIsIYHP732n0ceW-5" value="" style="html=1;points=[];perimeter=orthogonalPerimeter;outlineConnect=0;targetShapes=umlLifeline;portConstraint=eastwest;newEdgeStyle={&quot;edgeStyle&quot;:&quot;elbowEdgeStyle&quot;,&quot;elbow&quot;:&quot;vertical&quot;,&quot;curved&quot;:0,&quot;rounded&quot;:0};fontSize=9;" vertex="1" parent="w27s5DIsIYHP732n0ceW-4">
          <mxGeometry x="45" y="80" width="10" height="140" as="geometry" />
        </mxCell>
        <mxCell id="w27s5DIsIYHP732n0ceW-6" value="getJobs()" style="html=1;verticalAlign=bottom;endArrow=block;edgeStyle=elbowEdgeStyle;elbow=vertical;curved=0;rounded=0;fontSize=9;" edge="1" parent="w27s5DIsIYHP732n0ceW-1" source="w27s5DIsIYHP732n0ceW-3" target="w27s5DIsIYHP732n0ceW-5">
          <mxGeometry relative="1" as="geometry">
            <mxPoint x="195" y="250" as="sourcePoint" />
            <Array as="points">
              <mxPoint x="180" y="240" />
            </Array>
            <mxPoint as="offset" />
          </mxGeometry>
        </mxCell>
        <mxCell id="w27s5DIsIYHP732n0ceW-7" value="Database" style="shape=umlLifeline;perimeter=lifelinePerimeter;whiteSpace=wrap;html=1;container=1;dropTarget=0;collapsible=0;recursiveResize=0;outlineConnect=0;portConstraint=eastwest;newEdgeStyle={&quot;edgeStyle&quot;:&quot;elbowEdgeStyle&quot;,&quot;elbow&quot;:&quot;vertical&quot;,&quot;curved&quot;:0,&quot;rounded&quot;:0};fontSize=9;" vertex="1" parent="w27s5DIsIYHP732n0ceW-1">
          <mxGeometry x="400" y="160" width="100" height="400" as="geometry" />
        </mxCell>
        <mxCell id="w27s5DIsIYHP732n0ceW-8" value="" style="shape=umlActor;verticalLabelPosition=bottom;verticalAlign=top;html=1;fontSize=9;" vertex="1" parent="w27s5DIsIYHP732n0ceW-1">
          <mxGeometry x="75" y="100" width="30" height="60" as="geometry" />
        </mxCell>
        <mxCell id="w27s5DIsIYHP732n0ceW-9" value="alt" style="shape=umlFrame;whiteSpace=wrap;html=1;pointerEvents=0;width=40;height=20;fontSize=9;" vertex="1" parent="w27s5DIsIYHP732n0ceW-1">
          <mxGeometry x="50" y="300" width="430" height="180" as="geometry" />
        </mxCell>
        <mxCell id="w27s5DIsIYHP732n0ceW-10" value="&lt;font style=&quot;font-size: 9px;&quot;&gt;[token valid and role = individual]&lt;/font&gt;" style="text;html=1;strokeColor=none;fillColor=none;align=left;verticalAlign=middle;whiteSpace=wrap;rounded=0;fontSize=9;" vertex="1" parent="w27s5DIsIYHP732n0ceW-1">
          <mxGeometry x="275" y="300" width="165" height="20" as="geometry" />
        </mxCell>
        <mxCell id="w27s5DIsIYHP732n0ceW-11" value="" style="endArrow=none;dashed=1;html=1;rounded=0;exitX=0.005;exitY=0.559;exitDx=0;exitDy=0;exitPerimeter=0;entryX=1;entryY=0.556;entryDx=0;entryDy=0;entryPerimeter=0;fontSize=9;" edge="1" parent="w27s5DIsIYHP732n0ceW-1" source="w27s5DIsIYHP732n0ceW-9" target="w27s5DIsIYHP732n0ceW-9">
          <mxGeometry width="50" height="50" relative="1" as="geometry">
            <mxPoint x="220" y="390" as="sourcePoint" />
            <mxPoint x="270" y="340" as="targetPoint" />
          </mxGeometry>
        </mxCell>
        <mxCell id="w27s5DIsIYHP732n0ceW-12" value="&lt;font style=&quot;font-size: 9px;&quot;&gt;[else]&lt;/font&gt;" style="text;html=1;strokeColor=none;fillColor=none;align=left;verticalAlign=middle;whiteSpace=wrap;rounded=0;fontSize=9;" vertex="1" parent="w27s5DIsIYHP732n0ceW-1">
          <mxGeometry x="275" y="400" width="60" height="20" as="geometry" />
        </mxCell>
        <mxCell id="w27s5DIsIYHP732n0ceW-13" style="edgeStyle=elbowEdgeStyle;rounded=0;orthogonalLoop=1;jettySize=auto;html=1;elbow=vertical;curved=0;fontFamily=Helvetica;fontSize=9;fontColor=default;dashed=1;" edge="1" parent="w27s5DIsIYHP732n0ceW-1" source="w27s5DIsIYHP732n0ceW-5" target="w27s5DIsIYHP732n0ceW-3">
          <mxGeometry relative="1" as="geometry">
            <Array as="points">
              <mxPoint x="200" y="380" />
            </Array>
          </mxGeometry>
        </mxCell>
        <mxCell id="w27s5DIsIYHP732n0ceW-14" value="jobs" style="edgeLabel;html=1;align=center;verticalAlign=middle;resizable=0;points=[];fontSize=9;fontFamily=Helvetica;fontColor=default;" vertex="1" connectable="0" parent="w27s5DIsIYHP732n0ceW-13">
          <mxGeometry x="0.0292" y="2" relative="1" as="geometry">
            <mxPoint y="-12" as="offset" />
          </mxGeometry>
        </mxCell>
        <mxCell id="w27s5DIsIYHP732n0ceW-15" style="edgeStyle=elbowEdgeStyle;rounded=0;orthogonalLoop=1;jettySize=auto;html=1;elbow=vertical;curved=0;fontFamily=Helvetica;fontSize=9;fontColor=default;dashed=1;" edge="1" parent="w27s5DIsIYHP732n0ceW-1" source="w27s5DIsIYHP732n0ceW-17" target="w27s5DIsIYHP732n0ceW-3">
          <mxGeometry relative="1" as="geometry">
            <Array as="points">
              <mxPoint x="210" y="460" />
            </Array>
          </mxGeometry>
        </mxCell>
        <mxCell id="w27s5DIsIYHP732n0ceW-16" value="error" style="edgeLabel;html=1;align=center;verticalAlign=middle;resizable=0;points=[];fontSize=9;fontFamily=Helvetica;fontColor=default;" vertex="1" connectable="0" parent="w27s5DIsIYHP732n0ceW-15">
          <mxGeometry x="0.1996" y="3" relative="1" as="geometry">
            <mxPoint x="17" y="-13" as="offset" />
          </mxGeometry>
        </mxCell>
        <mxCell id="w27s5DIsIYHP732n0ceW-17" value="" style="html=1;points=[];perimeter=orthogonalPerimeter;outlineConnect=0;targetShapes=umlLifeline;portConstraint=eastwest;newEdgeStyle={&quot;edgeStyle&quot;:&quot;elbowEdgeStyle&quot;,&quot;elbow&quot;:&quot;vertical&quot;,&quot;curved&quot;:0,&quot;rounded&quot;:0};labelBackgroundColor=default;fontFamily=Helvetica;fontSize=9;" vertex="1" parent="w27s5DIsIYHP732n0ceW-1">
          <mxGeometry x="265" y="410" width="10" height="50" as="geometry" />
        </mxCell>
        <mxCell id="w27s5DIsIYHP732n0ceW-18" style="rounded=0;orthogonalLoop=1;jettySize=auto;html=1;fontFamily=Helvetica;fontSize=9;fontColor=default;edgeStyle=orthogonalEdgeStyle;" edge="1" parent="w27s5DIsIYHP732n0ceW-1" source="w27s5DIsIYHP732n0ceW-17">
          <mxGeometry relative="1" as="geometry">
            <mxPoint x="275" y="442" as="sourcePoint" />
            <mxPoint x="275" y="452" as="targetPoint" />
            <Array as="points">
              <mxPoint x="300" y="430" />
            </Array>
          </mxGeometry>
        </mxCell>
        <mxCell id="w27s5DIsIYHP732n0ceW-19" value="errorHandler()" style="edgeLabel;html=1;align=center;verticalAlign=middle;resizable=0;points=[];fontSize=9;fontFamily=Helvetica;fontColor=default;" vertex="1" connectable="0" parent="w27s5DIsIYHP732n0ceW-18">
          <mxGeometry x="0.2308" relative="1" as="geometry">
            <mxPoint x="20" y="-9" as="offset" />
          </mxGeometry>
        </mxCell>
        <mxCell id="w27s5DIsIYHP732n0ceW-20" style="edgeStyle=elbowEdgeStyle;rounded=0;orthogonalLoop=1;jettySize=auto;html=1;fontFamily=Helvetica;fontSize=9;fontColor=default;exitX=1;exitY=0.643;exitDx=0;exitDy=0;exitPerimeter=0;" edge="1" parent="w27s5DIsIYHP732n0ceW-1" target="w27s5DIsIYHP732n0ceW-5">
          <mxGeometry relative="1" as="geometry">
            <mxPoint x="275" y="250" as="sourcePoint" />
            <mxPoint x="275" y="290" as="targetPoint" />
            <Array as="points">
              <mxPoint x="300" y="280" />
              <mxPoint x="300" y="270" />
              <mxPoint x="290" y="290" />
              <mxPoint x="290" y="270" />
              <mxPoint x="300" y="290" />
              <mxPoint x="300" y="280" />
              <mxPoint x="300" y="260" />
            </Array>
          </mxGeometry>
        </mxCell>
        <mxCell id="w27s5DIsIYHP732n0ceW-21" value="validateTokenAndRole()" style="edgeLabel;html=1;align=center;verticalAlign=middle;resizable=0;points=[];fontSize=9;fontFamily=Helvetica;fontColor=default;" vertex="1" connectable="0" parent="w27s5DIsIYHP732n0ceW-20">
          <mxGeometry x="-0.0049" y="-1" relative="1" as="geometry">
            <mxPoint x="31" as="offset" />
          </mxGeometry>
        </mxCell>
        <mxCell id="w27s5DIsIYHP732n0ceW-22" style="edgeStyle=elbowEdgeStyle;rounded=0;orthogonalLoop=1;jettySize=auto;html=1;elbow=vertical;curved=0;fontFamily=Helvetica;fontSize=9;fontColor=default;dashed=1;" edge="1" parent="w27s5DIsIYHP732n0ceW-1" source="w27s5DIsIYHP732n0ceW-24" target="w27s5DIsIYHP732n0ceW-5">
          <mxGeometry relative="1" as="geometry">
            <Array as="points">
              <mxPoint x="400" y="370" />
              <mxPoint x="370" y="360" />
            </Array>
          </mxGeometry>
        </mxCell>
        <mxCell id="w27s5DIsIYHP732n0ceW-23" value="jobs" style="edgeLabel;html=1;align=center;verticalAlign=middle;resizable=0;points=[];fontSize=9;fontFamily=Helvetica;fontColor=default;" vertex="1" connectable="0" parent="w27s5DIsIYHP732n0ceW-22">
          <mxGeometry x="-0.1953" y="1" relative="1" as="geometry">
            <mxPoint x="-19" y="-11" as="offset" />
          </mxGeometry>
        </mxCell>
        <mxCell id="w27s5DIsIYHP732n0ceW-24" value="" style="html=1;points=[];perimeter=orthogonalPerimeter;outlineConnect=0;targetShapes=umlLifeline;portConstraint=eastwest;newEdgeStyle={&quot;edgeStyle&quot;:&quot;elbowEdgeStyle&quot;,&quot;elbow&quot;:&quot;vertical&quot;,&quot;curved&quot;:0,&quot;rounded&quot;:0};labelBackgroundColor=default;fontFamily=Helvetica;fontSize=9;" vertex="1" parent="w27s5DIsIYHP732n0ceW-1">
          <mxGeometry x="445" y="340" width="10" height="30" as="geometry" />
        </mxCell>
        <mxCell id="w27s5DIsIYHP732n0ceW-25" style="edgeStyle=elbowEdgeStyle;rounded=0;orthogonalLoop=1;jettySize=auto;html=1;elbow=vertical;curved=0;fontFamily=Helvetica;fontSize=9;fontColor=default;" edge="1" parent="w27s5DIsIYHP732n0ceW-1" source="w27s5DIsIYHP732n0ceW-5" target="w27s5DIsIYHP732n0ceW-24">
          <mxGeometry relative="1" as="geometry">
            <Array as="points">
              <mxPoint x="390" y="340" />
              <mxPoint x="410" y="330" />
            </Array>
          </mxGeometry>
        </mxCell>
        <mxCell id="w27s5DIsIYHP732n0ceW-26" value="getAllJob()" style="edgeLabel;html=1;align=center;verticalAlign=middle;resizable=0;points=[];fontSize=9;fontFamily=Helvetica;fontColor=default;" vertex="1" connectable="0" parent="w27s5DIsIYHP732n0ceW-25">
          <mxGeometry x="0.0005" y="1" relative="1" as="geometry">
            <mxPoint y="-9" as="offset" />
          </mxGeometry>
        </mxCell>
      </root>
    </mxGraphModel>
  </diagram>
  <diagram name="Org Create Job" id="bLzNh771mc8YjLkyBvo2">
    <mxGraphModel dx="794" dy="477" grid="1" gridSize="10" guides="1" tooltips="1" connect="1" arrows="1" fold="1" page="1" pageScale="1" pageWidth="850" pageHeight="1100" math="0" shadow="0">
      <root>
        <mxCell id="7K5grNHIm_VdigfsTIl--0" />
        <mxCell id="7K5grNHIm_VdigfsTIl--1" parent="7K5grNHIm_VdigfsTIl--0" />
        <mxCell id="7K5grNHIm_VdigfsTIl--2" value="Organization" style="shape=umlLifeline;perimeter=lifelinePerimeter;whiteSpace=wrap;html=1;container=0;dropTarget=0;collapsible=0;recursiveResize=0;outlineConnect=0;portConstraint=eastwest;newEdgeStyle={&quot;edgeStyle&quot;:&quot;elbowEdgeStyle&quot;,&quot;elbow&quot;:&quot;vertical&quot;,&quot;curved&quot;:0,&quot;rounded&quot;:0};fontSize=9;" vertex="1" parent="7K5grNHIm_VdigfsTIl--1">
          <mxGeometry x="40" y="160" width="100" height="400" as="geometry" />
        </mxCell>
        <mxCell id="7K5grNHIm_VdigfsTIl--3" value="" style="html=1;points=[];perimeter=orthogonalPerimeter;outlineConnect=0;targetShapes=umlLifeline;portConstraint=eastwest;newEdgeStyle={&quot;edgeStyle&quot;:&quot;elbowEdgeStyle&quot;,&quot;elbow&quot;:&quot;vertical&quot;,&quot;curved&quot;:0,&quot;rounded&quot;:0};fontSize=9;" vertex="1" parent="7K5grNHIm_VdigfsTIl--2">
          <mxGeometry x="45" y="70" width="10" height="230" as="geometry" />
        </mxCell>
        <mxCell id="7K5grNHIm_VdigfsTIl--4" value="Back End" style="shape=umlLifeline;perimeter=lifelinePerimeter;whiteSpace=wrap;html=1;container=0;dropTarget=0;collapsible=0;recursiveResize=0;outlineConnect=0;portConstraint=eastwest;newEdgeStyle={&quot;edgeStyle&quot;:&quot;elbowEdgeStyle&quot;,&quot;elbow&quot;:&quot;vertical&quot;,&quot;curved&quot;:0,&quot;rounded&quot;:0};fontSize=9;" vertex="1" parent="7K5grNHIm_VdigfsTIl--1">
          <mxGeometry x="220" y="160" width="100" height="400" as="geometry" />
        </mxCell>
        <mxCell id="7K5grNHIm_VdigfsTIl--5" value="" style="html=1;points=[];perimeter=orthogonalPerimeter;outlineConnect=0;targetShapes=umlLifeline;portConstraint=eastwest;newEdgeStyle={&quot;edgeStyle&quot;:&quot;elbowEdgeStyle&quot;,&quot;elbow&quot;:&quot;vertical&quot;,&quot;curved&quot;:0,&quot;rounded&quot;:0};fontSize=9;" vertex="1" parent="7K5grNHIm_VdigfsTIl--4">
          <mxGeometry x="45" y="80" width="10" height="140" as="geometry" />
        </mxCell>
        <mxCell id="7K5grNHIm_VdigfsTIl--6" value="createJobs()" style="html=1;verticalAlign=bottom;endArrow=block;edgeStyle=elbowEdgeStyle;elbow=vertical;curved=0;rounded=0;fontSize=9;" edge="1" parent="7K5grNHIm_VdigfsTIl--1" source="7K5grNHIm_VdigfsTIl--3" target="7K5grNHIm_VdigfsTIl--5">
          <mxGeometry relative="1" as="geometry">
            <mxPoint x="195" y="250" as="sourcePoint" />
            <Array as="points">
              <mxPoint x="180" y="240" />
            </Array>
            <mxPoint as="offset" />
          </mxGeometry>
        </mxCell>
        <mxCell id="7K5grNHIm_VdigfsTIl--7" value="Database" style="shape=umlLifeline;perimeter=lifelinePerimeter;whiteSpace=wrap;html=1;container=1;dropTarget=0;collapsible=0;recursiveResize=0;outlineConnect=0;portConstraint=eastwest;newEdgeStyle={&quot;edgeStyle&quot;:&quot;elbowEdgeStyle&quot;,&quot;elbow&quot;:&quot;vertical&quot;,&quot;curved&quot;:0,&quot;rounded&quot;:0};fontSize=9;" vertex="1" parent="7K5grNHIm_VdigfsTIl--1">
          <mxGeometry x="400" y="160" width="100" height="400" as="geometry" />
        </mxCell>
        <mxCell id="7K5grNHIm_VdigfsTIl--8" value="" style="shape=umlActor;verticalLabelPosition=bottom;verticalAlign=top;html=1;fontSize=9;" vertex="1" parent="7K5grNHIm_VdigfsTIl--1">
          <mxGeometry x="75" y="100" width="30" height="60" as="geometry" />
        </mxCell>
        <mxCell id="7K5grNHIm_VdigfsTIl--9" value="alt" style="shape=umlFrame;whiteSpace=wrap;html=1;pointerEvents=0;width=40;height=20;fontSize=9;" vertex="1" parent="7K5grNHIm_VdigfsTIl--1">
          <mxGeometry x="50" y="300" width="430" height="180" as="geometry" />
        </mxCell>
        <mxCell id="7K5grNHIm_VdigfsTIl--10" value="&lt;font style=&quot;font-size: 9px;&quot;&gt;[token valid and role = organization]&lt;/font&gt;" style="text;html=1;strokeColor=none;fillColor=none;align=left;verticalAlign=middle;whiteSpace=wrap;rounded=0;fontSize=9;" vertex="1" parent="7K5grNHIm_VdigfsTIl--1">
          <mxGeometry x="275" y="300" width="165" height="20" as="geometry" />
        </mxCell>
        <mxCell id="7K5grNHIm_VdigfsTIl--11" value="" style="endArrow=none;dashed=1;html=1;rounded=0;exitX=0.005;exitY=0.559;exitDx=0;exitDy=0;exitPerimeter=0;entryX=1;entryY=0.556;entryDx=0;entryDy=0;entryPerimeter=0;fontSize=9;" edge="1" parent="7K5grNHIm_VdigfsTIl--1" source="7K5grNHIm_VdigfsTIl--9" target="7K5grNHIm_VdigfsTIl--9">
          <mxGeometry width="50" height="50" relative="1" as="geometry">
            <mxPoint x="220" y="390" as="sourcePoint" />
            <mxPoint x="270" y="340" as="targetPoint" />
          </mxGeometry>
        </mxCell>
        <mxCell id="7K5grNHIm_VdigfsTIl--12" value="&lt;font style=&quot;font-size: 9px;&quot;&gt;[else]&lt;/font&gt;" style="text;html=1;strokeColor=none;fillColor=none;align=left;verticalAlign=middle;whiteSpace=wrap;rounded=0;fontSize=9;" vertex="1" parent="7K5grNHIm_VdigfsTIl--1">
          <mxGeometry x="275" y="400" width="60" height="20" as="geometry" />
        </mxCell>
        <mxCell id="7K5grNHIm_VdigfsTIl--13" style="edgeStyle=elbowEdgeStyle;rounded=0;orthogonalLoop=1;jettySize=auto;html=1;elbow=vertical;curved=0;fontFamily=Helvetica;fontSize=9;fontColor=default;dashed=1;" edge="1" parent="7K5grNHIm_VdigfsTIl--1" source="7K5grNHIm_VdigfsTIl--5" target="7K5grNHIm_VdigfsTIl--3">
          <mxGeometry relative="1" as="geometry">
            <Array as="points">
              <mxPoint x="200" y="380" />
            </Array>
          </mxGeometry>
        </mxCell>
        <mxCell id="7K5grNHIm_VdigfsTIl--14" value="success" style="edgeLabel;html=1;align=center;verticalAlign=middle;resizable=0;points=[];fontSize=9;fontFamily=Helvetica;fontColor=default;" vertex="1" connectable="0" parent="7K5grNHIm_VdigfsTIl--13">
          <mxGeometry x="0.0292" y="2" relative="1" as="geometry">
            <mxPoint y="-12" as="offset" />
          </mxGeometry>
        </mxCell>
        <mxCell id="7K5grNHIm_VdigfsTIl--15" style="edgeStyle=elbowEdgeStyle;rounded=0;orthogonalLoop=1;jettySize=auto;html=1;elbow=vertical;curved=0;fontFamily=Helvetica;fontSize=9;fontColor=default;dashed=1;" edge="1" parent="7K5grNHIm_VdigfsTIl--1" source="7K5grNHIm_VdigfsTIl--17" target="7K5grNHIm_VdigfsTIl--3">
          <mxGeometry relative="1" as="geometry">
            <Array as="points">
              <mxPoint x="210" y="460" />
            </Array>
          </mxGeometry>
        </mxCell>
        <mxCell id="7K5grNHIm_VdigfsTIl--16" value="error" style="edgeLabel;html=1;align=center;verticalAlign=middle;resizable=0;points=[];fontSize=9;fontFamily=Helvetica;fontColor=default;" vertex="1" connectable="0" parent="7K5grNHIm_VdigfsTIl--15">
          <mxGeometry x="0.1996" y="3" relative="1" as="geometry">
            <mxPoint x="17" y="-13" as="offset" />
          </mxGeometry>
        </mxCell>
        <mxCell id="7K5grNHIm_VdigfsTIl--17" value="" style="html=1;points=[];perimeter=orthogonalPerimeter;outlineConnect=0;targetShapes=umlLifeline;portConstraint=eastwest;newEdgeStyle={&quot;edgeStyle&quot;:&quot;elbowEdgeStyle&quot;,&quot;elbow&quot;:&quot;vertical&quot;,&quot;curved&quot;:0,&quot;rounded&quot;:0};labelBackgroundColor=default;fontFamily=Helvetica;fontSize=9;" vertex="1" parent="7K5grNHIm_VdigfsTIl--1">
          <mxGeometry x="265" y="410" width="10" height="50" as="geometry" />
        </mxCell>
        <mxCell id="7K5grNHIm_VdigfsTIl--18" style="rounded=0;orthogonalLoop=1;jettySize=auto;html=1;fontFamily=Helvetica;fontSize=9;fontColor=default;edgeStyle=orthogonalEdgeStyle;" edge="1" parent="7K5grNHIm_VdigfsTIl--1" source="7K5grNHIm_VdigfsTIl--17">
          <mxGeometry relative="1" as="geometry">
            <mxPoint x="275" y="442" as="sourcePoint" />
            <mxPoint x="275" y="452" as="targetPoint" />
            <Array as="points">
              <mxPoint x="300" y="430" />
            </Array>
          </mxGeometry>
        </mxCell>
        <mxCell id="7K5grNHIm_VdigfsTIl--19" value="errorHandler()" style="edgeLabel;html=1;align=center;verticalAlign=middle;resizable=0;points=[];fontSize=9;fontFamily=Helvetica;fontColor=default;" vertex="1" connectable="0" parent="7K5grNHIm_VdigfsTIl--18">
          <mxGeometry x="0.2308" relative="1" as="geometry">
            <mxPoint x="20" y="-9" as="offset" />
          </mxGeometry>
        </mxCell>
        <mxCell id="7K5grNHIm_VdigfsTIl--20" style="edgeStyle=elbowEdgeStyle;rounded=0;orthogonalLoop=1;jettySize=auto;html=1;fontFamily=Helvetica;fontSize=9;fontColor=default;exitX=1;exitY=0.643;exitDx=0;exitDy=0;exitPerimeter=0;" edge="1" parent="7K5grNHIm_VdigfsTIl--1" target="7K5grNHIm_VdigfsTIl--5">
          <mxGeometry relative="1" as="geometry">
            <mxPoint x="275" y="250" as="sourcePoint" />
            <mxPoint x="275" y="290" as="targetPoint" />
            <Array as="points">
              <mxPoint x="300" y="280" />
              <mxPoint x="300" y="270" />
              <mxPoint x="290" y="290" />
              <mxPoint x="290" y="270" />
              <mxPoint x="300" y="290" />
              <mxPoint x="300" y="280" />
              <mxPoint x="300" y="260" />
            </Array>
          </mxGeometry>
        </mxCell>
        <mxCell id="7K5grNHIm_VdigfsTIl--21" value="validateTokenAndRole()" style="edgeLabel;html=1;align=center;verticalAlign=middle;resizable=0;points=[];fontSize=9;fontFamily=Helvetica;fontColor=default;" vertex="1" connectable="0" parent="7K5grNHIm_VdigfsTIl--20">
          <mxGeometry x="-0.0049" y="-1" relative="1" as="geometry">
            <mxPoint x="31" as="offset" />
          </mxGeometry>
        </mxCell>
        <mxCell id="7K5grNHIm_VdigfsTIl--22" style="edgeStyle=elbowEdgeStyle;rounded=0;orthogonalLoop=1;jettySize=auto;html=1;elbow=vertical;curved=0;fontFamily=Helvetica;fontSize=9;fontColor=default;dashed=1;" edge="1" parent="7K5grNHIm_VdigfsTIl--1" source="7K5grNHIm_VdigfsTIl--24" target="7K5grNHIm_VdigfsTIl--5">
          <mxGeometry relative="1" as="geometry">
            <Array as="points">
              <mxPoint x="400" y="370" />
              <mxPoint x="370" y="360" />
            </Array>
          </mxGeometry>
        </mxCell>
        <mxCell id="7K5grNHIm_VdigfsTIl--23" value="success" style="edgeLabel;html=1;align=center;verticalAlign=middle;resizable=0;points=[];fontSize=9;fontFamily=Helvetica;fontColor=default;" vertex="1" connectable="0" parent="7K5grNHIm_VdigfsTIl--22">
          <mxGeometry x="-0.1953" y="1" relative="1" as="geometry">
            <mxPoint x="-19" y="-11" as="offset" />
          </mxGeometry>
        </mxCell>
        <mxCell id="7K5grNHIm_VdigfsTIl--24" value="" style="html=1;points=[];perimeter=orthogonalPerimeter;outlineConnect=0;targetShapes=umlLifeline;portConstraint=eastwest;newEdgeStyle={&quot;edgeStyle&quot;:&quot;elbowEdgeStyle&quot;,&quot;elbow&quot;:&quot;vertical&quot;,&quot;curved&quot;:0,&quot;rounded&quot;:0};labelBackgroundColor=default;fontFamily=Helvetica;fontSize=9;" vertex="1" parent="7K5grNHIm_VdigfsTIl--1">
          <mxGeometry x="445" y="340" width="10" height="30" as="geometry" />
        </mxCell>
        <mxCell id="7K5grNHIm_VdigfsTIl--25" style="edgeStyle=elbowEdgeStyle;rounded=0;orthogonalLoop=1;jettySize=auto;html=1;elbow=vertical;curved=0;fontFamily=Helvetica;fontSize=9;fontColor=default;" edge="1" parent="7K5grNHIm_VdigfsTIl--1" source="7K5grNHIm_VdigfsTIl--5" target="7K5grNHIm_VdigfsTIl--24">
          <mxGeometry relative="1" as="geometry">
            <Array as="points">
              <mxPoint x="390" y="340" />
              <mxPoint x="410" y="330" />
            </Array>
          </mxGeometry>
        </mxCell>
        <mxCell id="7K5grNHIm_VdigfsTIl--26" value="createJob()" style="edgeLabel;html=1;align=center;verticalAlign=middle;resizable=0;points=[];fontSize=9;fontFamily=Helvetica;fontColor=default;" vertex="1" connectable="0" parent="7K5grNHIm_VdigfsTIl--25">
          <mxGeometry x="0.0005" y="1" relative="1" as="geometry">
            <mxPoint y="-9" as="offset" />
          </mxGeometry>
        </mxCell>
      </root>
    </mxGraphModel>
  </diagram>
  <diagram name="Org Update Job" id="PTr7r_6_fhp4ddKMDZ2g">
    <mxGraphModel dx="662" dy="398" grid="1" gridSize="10" guides="1" tooltips="1" connect="1" arrows="1" fold="1" page="1" pageScale="1" pageWidth="850" pageHeight="1100" math="0" shadow="0">
      <root>
        <mxCell id="vJ9lXsnlJ71nUnhddGbV-0" />
        <mxCell id="vJ9lXsnlJ71nUnhddGbV-1" parent="vJ9lXsnlJ71nUnhddGbV-0" />
        <mxCell id="vJ9lXsnlJ71nUnhddGbV-2" value="Organization" style="shape=umlLifeline;perimeter=lifelinePerimeter;whiteSpace=wrap;html=1;container=0;dropTarget=0;collapsible=0;recursiveResize=0;outlineConnect=0;portConstraint=eastwest;newEdgeStyle={&quot;edgeStyle&quot;:&quot;elbowEdgeStyle&quot;,&quot;elbow&quot;:&quot;vertical&quot;,&quot;curved&quot;:0,&quot;rounded&quot;:0};fontSize=9;" vertex="1" parent="vJ9lXsnlJ71nUnhddGbV-1">
          <mxGeometry x="40" y="160" width="100" height="400" as="geometry" />
        </mxCell>
        <mxCell id="vJ9lXsnlJ71nUnhddGbV-3" value="" style="html=1;points=[];perimeter=orthogonalPerimeter;outlineConnect=0;targetShapes=umlLifeline;portConstraint=eastwest;newEdgeStyle={&quot;edgeStyle&quot;:&quot;elbowEdgeStyle&quot;,&quot;elbow&quot;:&quot;vertical&quot;,&quot;curved&quot;:0,&quot;rounded&quot;:0};fontSize=9;" vertex="1" parent="vJ9lXsnlJ71nUnhddGbV-2">
          <mxGeometry x="45" y="70" width="10" height="230" as="geometry" />
        </mxCell>
        <mxCell id="vJ9lXsnlJ71nUnhddGbV-4" value="Back End" style="shape=umlLifeline;perimeter=lifelinePerimeter;whiteSpace=wrap;html=1;container=0;dropTarget=0;collapsible=0;recursiveResize=0;outlineConnect=0;portConstraint=eastwest;newEdgeStyle={&quot;edgeStyle&quot;:&quot;elbowEdgeStyle&quot;,&quot;elbow&quot;:&quot;vertical&quot;,&quot;curved&quot;:0,&quot;rounded&quot;:0};fontSize=9;" vertex="1" parent="vJ9lXsnlJ71nUnhddGbV-1">
          <mxGeometry x="220" y="160" width="100" height="400" as="geometry" />
        </mxCell>
        <mxCell id="vJ9lXsnlJ71nUnhddGbV-5" value="" style="html=1;points=[];perimeter=orthogonalPerimeter;outlineConnect=0;targetShapes=umlLifeline;portConstraint=eastwest;newEdgeStyle={&quot;edgeStyle&quot;:&quot;elbowEdgeStyle&quot;,&quot;elbow&quot;:&quot;vertical&quot;,&quot;curved&quot;:0,&quot;rounded&quot;:0};fontSize=9;" vertex="1" parent="vJ9lXsnlJ71nUnhddGbV-4">
          <mxGeometry x="45" y="80" width="10" height="140" as="geometry" />
        </mxCell>
        <mxCell id="vJ9lXsnlJ71nUnhddGbV-6" value="updateJobs()" style="html=1;verticalAlign=bottom;endArrow=block;edgeStyle=elbowEdgeStyle;elbow=vertical;curved=0;rounded=0;fontSize=9;" edge="1" parent="vJ9lXsnlJ71nUnhddGbV-1" source="vJ9lXsnlJ71nUnhddGbV-3" target="vJ9lXsnlJ71nUnhddGbV-5">
          <mxGeometry relative="1" as="geometry">
            <mxPoint x="195" y="250" as="sourcePoint" />
            <Array as="points">
              <mxPoint x="180" y="240" />
            </Array>
            <mxPoint as="offset" />
          </mxGeometry>
        </mxCell>
        <mxCell id="vJ9lXsnlJ71nUnhddGbV-7" value="Database" style="shape=umlLifeline;perimeter=lifelinePerimeter;whiteSpace=wrap;html=1;container=1;dropTarget=0;collapsible=0;recursiveResize=0;outlineConnect=0;portConstraint=eastwest;newEdgeStyle={&quot;edgeStyle&quot;:&quot;elbowEdgeStyle&quot;,&quot;elbow&quot;:&quot;vertical&quot;,&quot;curved&quot;:0,&quot;rounded&quot;:0};fontSize=9;" vertex="1" parent="vJ9lXsnlJ71nUnhddGbV-1">
          <mxGeometry x="400" y="160" width="100" height="400" as="geometry" />
        </mxCell>
        <mxCell id="vJ9lXsnlJ71nUnhddGbV-8" value="" style="shape=umlActor;verticalLabelPosition=bottom;verticalAlign=top;html=1;fontSize=9;" vertex="1" parent="vJ9lXsnlJ71nUnhddGbV-1">
          <mxGeometry x="75" y="100" width="30" height="60" as="geometry" />
        </mxCell>
        <mxCell id="vJ9lXsnlJ71nUnhddGbV-9" value="alt" style="shape=umlFrame;whiteSpace=wrap;html=1;pointerEvents=0;width=40;height=20;fontSize=9;" vertex="1" parent="vJ9lXsnlJ71nUnhddGbV-1">
          <mxGeometry x="50" y="300" width="430" height="180" as="geometry" />
        </mxCell>
        <mxCell id="vJ9lXsnlJ71nUnhddGbV-10" value="&lt;font style=&quot;font-size: 9px;&quot;&gt;[token valid and role = organization]&lt;/font&gt;" style="text;html=1;strokeColor=none;fillColor=none;align=left;verticalAlign=middle;whiteSpace=wrap;rounded=0;fontSize=9;" vertex="1" parent="vJ9lXsnlJ71nUnhddGbV-1">
          <mxGeometry x="275" y="300" width="165" height="20" as="geometry" />
        </mxCell>
        <mxCell id="vJ9lXsnlJ71nUnhddGbV-11" value="" style="endArrow=none;dashed=1;html=1;rounded=0;exitX=0.005;exitY=0.559;exitDx=0;exitDy=0;exitPerimeter=0;entryX=1;entryY=0.556;entryDx=0;entryDy=0;entryPerimeter=0;fontSize=9;" edge="1" parent="vJ9lXsnlJ71nUnhddGbV-1" source="vJ9lXsnlJ71nUnhddGbV-9" target="vJ9lXsnlJ71nUnhddGbV-9">
          <mxGeometry width="50" height="50" relative="1" as="geometry">
            <mxPoint x="220" y="390" as="sourcePoint" />
            <mxPoint x="270" y="340" as="targetPoint" />
          </mxGeometry>
        </mxCell>
        <mxCell id="vJ9lXsnlJ71nUnhddGbV-12" value="&lt;font style=&quot;font-size: 9px;&quot;&gt;[else]&lt;/font&gt;" style="text;html=1;strokeColor=none;fillColor=none;align=left;verticalAlign=middle;whiteSpace=wrap;rounded=0;fontSize=9;" vertex="1" parent="vJ9lXsnlJ71nUnhddGbV-1">
          <mxGeometry x="275" y="400" width="60" height="20" as="geometry" />
        </mxCell>
        <mxCell id="vJ9lXsnlJ71nUnhddGbV-13" style="edgeStyle=elbowEdgeStyle;rounded=0;orthogonalLoop=1;jettySize=auto;html=1;elbow=vertical;curved=0;fontFamily=Helvetica;fontSize=9;fontColor=default;dashed=1;" edge="1" parent="vJ9lXsnlJ71nUnhddGbV-1" source="vJ9lXsnlJ71nUnhddGbV-5" target="vJ9lXsnlJ71nUnhddGbV-3">
          <mxGeometry relative="1" as="geometry">
            <Array as="points">
              <mxPoint x="200" y="380" />
            </Array>
          </mxGeometry>
        </mxCell>
        <mxCell id="vJ9lXsnlJ71nUnhddGbV-14" value="success" style="edgeLabel;html=1;align=center;verticalAlign=middle;resizable=0;points=[];fontSize=9;fontFamily=Helvetica;fontColor=default;" vertex="1" connectable="0" parent="vJ9lXsnlJ71nUnhddGbV-13">
          <mxGeometry x="0.0292" y="2" relative="1" as="geometry">
            <mxPoint y="-12" as="offset" />
          </mxGeometry>
        </mxCell>
        <mxCell id="vJ9lXsnlJ71nUnhddGbV-15" style="edgeStyle=elbowEdgeStyle;rounded=0;orthogonalLoop=1;jettySize=auto;html=1;elbow=vertical;curved=0;fontFamily=Helvetica;fontSize=9;fontColor=default;dashed=1;" edge="1" parent="vJ9lXsnlJ71nUnhddGbV-1" source="vJ9lXsnlJ71nUnhddGbV-17" target="vJ9lXsnlJ71nUnhddGbV-3">
          <mxGeometry relative="1" as="geometry">
            <Array as="points">
              <mxPoint x="210" y="460" />
            </Array>
          </mxGeometry>
        </mxCell>
        <mxCell id="vJ9lXsnlJ71nUnhddGbV-16" value="error" style="edgeLabel;html=1;align=center;verticalAlign=middle;resizable=0;points=[];fontSize=9;fontFamily=Helvetica;fontColor=default;" vertex="1" connectable="0" parent="vJ9lXsnlJ71nUnhddGbV-15">
          <mxGeometry x="0.1996" y="3" relative="1" as="geometry">
            <mxPoint x="17" y="-13" as="offset" />
          </mxGeometry>
        </mxCell>
        <mxCell id="vJ9lXsnlJ71nUnhddGbV-17" value="" style="html=1;points=[];perimeter=orthogonalPerimeter;outlineConnect=0;targetShapes=umlLifeline;portConstraint=eastwest;newEdgeStyle={&quot;edgeStyle&quot;:&quot;elbowEdgeStyle&quot;,&quot;elbow&quot;:&quot;vertical&quot;,&quot;curved&quot;:0,&quot;rounded&quot;:0};labelBackgroundColor=default;fontFamily=Helvetica;fontSize=9;" vertex="1" parent="vJ9lXsnlJ71nUnhddGbV-1">
          <mxGeometry x="265" y="410" width="10" height="50" as="geometry" />
        </mxCell>
        <mxCell id="vJ9lXsnlJ71nUnhddGbV-18" style="rounded=0;orthogonalLoop=1;jettySize=auto;html=1;fontFamily=Helvetica;fontSize=9;fontColor=default;edgeStyle=orthogonalEdgeStyle;" edge="1" parent="vJ9lXsnlJ71nUnhddGbV-1" source="vJ9lXsnlJ71nUnhddGbV-17">
          <mxGeometry relative="1" as="geometry">
            <mxPoint x="275" y="442" as="sourcePoint" />
            <mxPoint x="275" y="452" as="targetPoint" />
            <Array as="points">
              <mxPoint x="300" y="430" />
            </Array>
          </mxGeometry>
        </mxCell>
        <mxCell id="vJ9lXsnlJ71nUnhddGbV-19" value="errorHandler()" style="edgeLabel;html=1;align=center;verticalAlign=middle;resizable=0;points=[];fontSize=9;fontFamily=Helvetica;fontColor=default;" vertex="1" connectable="0" parent="vJ9lXsnlJ71nUnhddGbV-18">
          <mxGeometry x="0.2308" relative="1" as="geometry">
            <mxPoint x="20" y="-9" as="offset" />
          </mxGeometry>
        </mxCell>
        <mxCell id="vJ9lXsnlJ71nUnhddGbV-20" style="edgeStyle=elbowEdgeStyle;rounded=0;orthogonalLoop=1;jettySize=auto;html=1;fontFamily=Helvetica;fontSize=9;fontColor=default;exitX=1;exitY=0.643;exitDx=0;exitDy=0;exitPerimeter=0;" edge="1" parent="vJ9lXsnlJ71nUnhddGbV-1" target="vJ9lXsnlJ71nUnhddGbV-5">
          <mxGeometry relative="1" as="geometry">
            <mxPoint x="275" y="250" as="sourcePoint" />
            <mxPoint x="275" y="290" as="targetPoint" />
            <Array as="points">
              <mxPoint x="300" y="280" />
              <mxPoint x="300" y="270" />
              <mxPoint x="290" y="290" />
              <mxPoint x="290" y="270" />
              <mxPoint x="300" y="290" />
              <mxPoint x="300" y="280" />
              <mxPoint x="300" y="260" />
            </Array>
          </mxGeometry>
        </mxCell>
        <mxCell id="vJ9lXsnlJ71nUnhddGbV-21" value="validateTokenAndRole()" style="edgeLabel;html=1;align=center;verticalAlign=middle;resizable=0;points=[];fontSize=9;fontFamily=Helvetica;fontColor=default;" vertex="1" connectable="0" parent="vJ9lXsnlJ71nUnhddGbV-20">
          <mxGeometry x="-0.0049" y="-1" relative="1" as="geometry">
            <mxPoint x="31" as="offset" />
          </mxGeometry>
        </mxCell>
        <mxCell id="vJ9lXsnlJ71nUnhddGbV-22" style="edgeStyle=elbowEdgeStyle;rounded=0;orthogonalLoop=1;jettySize=auto;html=1;elbow=vertical;curved=0;fontFamily=Helvetica;fontSize=9;fontColor=default;dashed=1;" edge="1" parent="vJ9lXsnlJ71nUnhddGbV-1" source="vJ9lXsnlJ71nUnhddGbV-24" target="vJ9lXsnlJ71nUnhddGbV-5">
          <mxGeometry relative="1" as="geometry">
            <Array as="points">
              <mxPoint x="400" y="370" />
              <mxPoint x="370" y="360" />
            </Array>
          </mxGeometry>
        </mxCell>
        <mxCell id="vJ9lXsnlJ71nUnhddGbV-23" value="success" style="edgeLabel;html=1;align=center;verticalAlign=middle;resizable=0;points=[];fontSize=9;fontFamily=Helvetica;fontColor=default;" vertex="1" connectable="0" parent="vJ9lXsnlJ71nUnhddGbV-22">
          <mxGeometry x="-0.1953" y="1" relative="1" as="geometry">
            <mxPoint x="-19" y="-11" as="offset" />
          </mxGeometry>
        </mxCell>
        <mxCell id="vJ9lXsnlJ71nUnhddGbV-24" value="" style="html=1;points=[];perimeter=orthogonalPerimeter;outlineConnect=0;targetShapes=umlLifeline;portConstraint=eastwest;newEdgeStyle={&quot;edgeStyle&quot;:&quot;elbowEdgeStyle&quot;,&quot;elbow&quot;:&quot;vertical&quot;,&quot;curved&quot;:0,&quot;rounded&quot;:0};labelBackgroundColor=default;fontFamily=Helvetica;fontSize=9;" vertex="1" parent="vJ9lXsnlJ71nUnhddGbV-1">
          <mxGeometry x="445" y="340" width="10" height="30" as="geometry" />
        </mxCell>
        <mxCell id="vJ9lXsnlJ71nUnhddGbV-25" style="edgeStyle=elbowEdgeStyle;rounded=0;orthogonalLoop=1;jettySize=auto;html=1;elbow=vertical;curved=0;fontFamily=Helvetica;fontSize=9;fontColor=default;" edge="1" parent="vJ9lXsnlJ71nUnhddGbV-1" source="vJ9lXsnlJ71nUnhddGbV-5" target="vJ9lXsnlJ71nUnhddGbV-24">
          <mxGeometry relative="1" as="geometry">
            <Array as="points">
              <mxPoint x="390" y="340" />
              <mxPoint x="410" y="330" />
            </Array>
          </mxGeometry>
        </mxCell>
        <mxCell id="vJ9lXsnlJ71nUnhddGbV-26" value="updateJob()" style="edgeLabel;html=1;align=center;verticalAlign=middle;resizable=0;points=[];fontSize=9;fontFamily=Helvetica;fontColor=default;" vertex="1" connectable="0" parent="vJ9lXsnlJ71nUnhddGbV-25">
          <mxGeometry x="0.0005" y="1" relative="1" as="geometry">
            <mxPoint y="-9" as="offset" />
          </mxGeometry>
        </mxCell>
      </root>
    </mxGraphModel>
  </diagram>
  <diagram name="Org Delete Job" id="-gaZnxm23S6hojV2thlc">
    <mxGraphModel dx="662" dy="398" grid="1" gridSize="10" guides="1" tooltips="1" connect="1" arrows="1" fold="1" page="1" pageScale="1" pageWidth="850" pageHeight="1100" math="0" shadow="0">
      <root>
        <mxCell id="BdKpVgyeB9_RluUFLpPH-0" />
        <mxCell id="BdKpVgyeB9_RluUFLpPH-1" parent="BdKpVgyeB9_RluUFLpPH-0" />
        <mxCell id="BdKpVgyeB9_RluUFLpPH-2" value="Organization" style="shape=umlLifeline;perimeter=lifelinePerimeter;whiteSpace=wrap;html=1;container=0;dropTarget=0;collapsible=0;recursiveResize=0;outlineConnect=0;portConstraint=eastwest;newEdgeStyle={&quot;edgeStyle&quot;:&quot;elbowEdgeStyle&quot;,&quot;elbow&quot;:&quot;vertical&quot;,&quot;curved&quot;:0,&quot;rounded&quot;:0};fontSize=9;" vertex="1" parent="BdKpVgyeB9_RluUFLpPH-1">
          <mxGeometry x="40" y="160" width="100" height="400" as="geometry" />
        </mxCell>
        <mxCell id="BdKpVgyeB9_RluUFLpPH-3" value="" style="html=1;points=[];perimeter=orthogonalPerimeter;outlineConnect=0;targetShapes=umlLifeline;portConstraint=eastwest;newEdgeStyle={&quot;edgeStyle&quot;:&quot;elbowEdgeStyle&quot;,&quot;elbow&quot;:&quot;vertical&quot;,&quot;curved&quot;:0,&quot;rounded&quot;:0};fontSize=9;" vertex="1" parent="BdKpVgyeB9_RluUFLpPH-2">
          <mxGeometry x="45" y="70" width="10" height="230" as="geometry" />
        </mxCell>
        <mxCell id="BdKpVgyeB9_RluUFLpPH-4" value="Back End" style="shape=umlLifeline;perimeter=lifelinePerimeter;whiteSpace=wrap;html=1;container=0;dropTarget=0;collapsible=0;recursiveResize=0;outlineConnect=0;portConstraint=eastwest;newEdgeStyle={&quot;edgeStyle&quot;:&quot;elbowEdgeStyle&quot;,&quot;elbow&quot;:&quot;vertical&quot;,&quot;curved&quot;:0,&quot;rounded&quot;:0};fontSize=9;" vertex="1" parent="BdKpVgyeB9_RluUFLpPH-1">
          <mxGeometry x="220" y="160" width="100" height="400" as="geometry" />
        </mxCell>
        <mxCell id="BdKpVgyeB9_RluUFLpPH-5" value="" style="html=1;points=[];perimeter=orthogonalPerimeter;outlineConnect=0;targetShapes=umlLifeline;portConstraint=eastwest;newEdgeStyle={&quot;edgeStyle&quot;:&quot;elbowEdgeStyle&quot;,&quot;elbow&quot;:&quot;vertical&quot;,&quot;curved&quot;:0,&quot;rounded&quot;:0};fontSize=9;" vertex="1" parent="BdKpVgyeB9_RluUFLpPH-4">
          <mxGeometry x="45" y="80" width="10" height="140" as="geometry" />
        </mxCell>
        <mxCell id="BdKpVgyeB9_RluUFLpPH-6" value="deleteJobs()" style="html=1;verticalAlign=bottom;endArrow=block;edgeStyle=elbowEdgeStyle;elbow=vertical;curved=0;rounded=0;fontSize=9;" edge="1" parent="BdKpVgyeB9_RluUFLpPH-1" source="BdKpVgyeB9_RluUFLpPH-3" target="BdKpVgyeB9_RluUFLpPH-5">
          <mxGeometry relative="1" as="geometry">
            <mxPoint x="195" y="250" as="sourcePoint" />
            <Array as="points">
              <mxPoint x="180" y="240" />
            </Array>
            <mxPoint as="offset" />
          </mxGeometry>
        </mxCell>
        <mxCell id="BdKpVgyeB9_RluUFLpPH-7" value="Database" style="shape=umlLifeline;perimeter=lifelinePerimeter;whiteSpace=wrap;html=1;container=1;dropTarget=0;collapsible=0;recursiveResize=0;outlineConnect=0;portConstraint=eastwest;newEdgeStyle={&quot;edgeStyle&quot;:&quot;elbowEdgeStyle&quot;,&quot;elbow&quot;:&quot;vertical&quot;,&quot;curved&quot;:0,&quot;rounded&quot;:0};fontSize=9;" vertex="1" parent="BdKpVgyeB9_RluUFLpPH-1">
          <mxGeometry x="400" y="160" width="100" height="400" as="geometry" />
        </mxCell>
        <mxCell id="BdKpVgyeB9_RluUFLpPH-8" value="" style="shape=umlActor;verticalLabelPosition=bottom;verticalAlign=top;html=1;fontSize=9;" vertex="1" parent="BdKpVgyeB9_RluUFLpPH-1">
          <mxGeometry x="75" y="100" width="30" height="60" as="geometry" />
        </mxCell>
        <mxCell id="BdKpVgyeB9_RluUFLpPH-9" value="alt" style="shape=umlFrame;whiteSpace=wrap;html=1;pointerEvents=0;width=40;height=20;fontSize=9;" vertex="1" parent="BdKpVgyeB9_RluUFLpPH-1">
          <mxGeometry x="50" y="300" width="430" height="180" as="geometry" />
        </mxCell>
        <mxCell id="BdKpVgyeB9_RluUFLpPH-10" value="&lt;font style=&quot;font-size: 9px;&quot;&gt;[token valid and role = organization]&lt;/font&gt;" style="text;html=1;strokeColor=none;fillColor=none;align=left;verticalAlign=middle;whiteSpace=wrap;rounded=0;fontSize=9;" vertex="1" parent="BdKpVgyeB9_RluUFLpPH-1">
          <mxGeometry x="275" y="300" width="165" height="20" as="geometry" />
        </mxCell>
        <mxCell id="BdKpVgyeB9_RluUFLpPH-11" value="" style="endArrow=none;dashed=1;html=1;rounded=0;exitX=0.005;exitY=0.559;exitDx=0;exitDy=0;exitPerimeter=0;entryX=1;entryY=0.556;entryDx=0;entryDy=0;entryPerimeter=0;fontSize=9;" edge="1" parent="BdKpVgyeB9_RluUFLpPH-1" source="BdKpVgyeB9_RluUFLpPH-9" target="BdKpVgyeB9_RluUFLpPH-9">
          <mxGeometry width="50" height="50" relative="1" as="geometry">
            <mxPoint x="220" y="390" as="sourcePoint" />
            <mxPoint x="270" y="340" as="targetPoint" />
          </mxGeometry>
        </mxCell>
        <mxCell id="BdKpVgyeB9_RluUFLpPH-12" value="&lt;font style=&quot;font-size: 9px;&quot;&gt;[else]&lt;/font&gt;" style="text;html=1;strokeColor=none;fillColor=none;align=left;verticalAlign=middle;whiteSpace=wrap;rounded=0;fontSize=9;" vertex="1" parent="BdKpVgyeB9_RluUFLpPH-1">
          <mxGeometry x="275" y="400" width="60" height="20" as="geometry" />
        </mxCell>
        <mxCell id="BdKpVgyeB9_RluUFLpPH-13" style="edgeStyle=elbowEdgeStyle;rounded=0;orthogonalLoop=1;jettySize=auto;html=1;elbow=vertical;curved=0;fontFamily=Helvetica;fontSize=9;fontColor=default;dashed=1;" edge="1" parent="BdKpVgyeB9_RluUFLpPH-1" source="BdKpVgyeB9_RluUFLpPH-5" target="BdKpVgyeB9_RluUFLpPH-3">
          <mxGeometry relative="1" as="geometry">
            <Array as="points">
              <mxPoint x="200" y="380" />
            </Array>
          </mxGeometry>
        </mxCell>
        <mxCell id="BdKpVgyeB9_RluUFLpPH-14" value="success" style="edgeLabel;html=1;align=center;verticalAlign=middle;resizable=0;points=[];fontSize=9;fontFamily=Helvetica;fontColor=default;" vertex="1" connectable="0" parent="BdKpVgyeB9_RluUFLpPH-13">
          <mxGeometry x="0.0292" y="2" relative="1" as="geometry">
            <mxPoint y="-12" as="offset" />
          </mxGeometry>
        </mxCell>
        <mxCell id="BdKpVgyeB9_RluUFLpPH-15" style="edgeStyle=elbowEdgeStyle;rounded=0;orthogonalLoop=1;jettySize=auto;html=1;elbow=vertical;curved=0;fontFamily=Helvetica;fontSize=9;fontColor=default;dashed=1;" edge="1" parent="BdKpVgyeB9_RluUFLpPH-1" source="BdKpVgyeB9_RluUFLpPH-17" target="BdKpVgyeB9_RluUFLpPH-3">
          <mxGeometry relative="1" as="geometry">
            <Array as="points">
              <mxPoint x="210" y="460" />
            </Array>
          </mxGeometry>
        </mxCell>
        <mxCell id="BdKpVgyeB9_RluUFLpPH-16" value="error" style="edgeLabel;html=1;align=center;verticalAlign=middle;resizable=0;points=[];fontSize=9;fontFamily=Helvetica;fontColor=default;" vertex="1" connectable="0" parent="BdKpVgyeB9_RluUFLpPH-15">
          <mxGeometry x="0.1996" y="3" relative="1" as="geometry">
            <mxPoint x="17" y="-13" as="offset" />
          </mxGeometry>
        </mxCell>
        <mxCell id="BdKpVgyeB9_RluUFLpPH-17" value="" style="html=1;points=[];perimeter=orthogonalPerimeter;outlineConnect=0;targetShapes=umlLifeline;portConstraint=eastwest;newEdgeStyle={&quot;edgeStyle&quot;:&quot;elbowEdgeStyle&quot;,&quot;elbow&quot;:&quot;vertical&quot;,&quot;curved&quot;:0,&quot;rounded&quot;:0};labelBackgroundColor=default;fontFamily=Helvetica;fontSize=9;" vertex="1" parent="BdKpVgyeB9_RluUFLpPH-1">
          <mxGeometry x="265" y="410" width="10" height="50" as="geometry" />
        </mxCell>
        <mxCell id="BdKpVgyeB9_RluUFLpPH-18" style="rounded=0;orthogonalLoop=1;jettySize=auto;html=1;fontFamily=Helvetica;fontSize=9;fontColor=default;edgeStyle=orthogonalEdgeStyle;" edge="1" parent="BdKpVgyeB9_RluUFLpPH-1" source="BdKpVgyeB9_RluUFLpPH-17">
          <mxGeometry relative="1" as="geometry">
            <mxPoint x="275" y="442" as="sourcePoint" />
            <mxPoint x="275" y="452" as="targetPoint" />
            <Array as="points">
              <mxPoint x="300" y="430" />
            </Array>
          </mxGeometry>
        </mxCell>
        <mxCell id="BdKpVgyeB9_RluUFLpPH-19" value="errorHandler()" style="edgeLabel;html=1;align=center;verticalAlign=middle;resizable=0;points=[];fontSize=9;fontFamily=Helvetica;fontColor=default;" vertex="1" connectable="0" parent="BdKpVgyeB9_RluUFLpPH-18">
          <mxGeometry x="0.2308" relative="1" as="geometry">
            <mxPoint x="20" y="-9" as="offset" />
          </mxGeometry>
        </mxCell>
        <mxCell id="BdKpVgyeB9_RluUFLpPH-20" style="edgeStyle=elbowEdgeStyle;rounded=0;orthogonalLoop=1;jettySize=auto;html=1;fontFamily=Helvetica;fontSize=9;fontColor=default;exitX=1;exitY=0.643;exitDx=0;exitDy=0;exitPerimeter=0;" edge="1" parent="BdKpVgyeB9_RluUFLpPH-1" target="BdKpVgyeB9_RluUFLpPH-5">
          <mxGeometry relative="1" as="geometry">
            <mxPoint x="275" y="250" as="sourcePoint" />
            <mxPoint x="275" y="290" as="targetPoint" />
            <Array as="points">
              <mxPoint x="300" y="280" />
              <mxPoint x="300" y="270" />
              <mxPoint x="290" y="290" />
              <mxPoint x="290" y="270" />
              <mxPoint x="300" y="290" />
              <mxPoint x="300" y="280" />
              <mxPoint x="300" y="260" />
            </Array>
          </mxGeometry>
        </mxCell>
        <mxCell id="BdKpVgyeB9_RluUFLpPH-21" value="validateTokenAndRole()" style="edgeLabel;html=1;align=center;verticalAlign=middle;resizable=0;points=[];fontSize=9;fontFamily=Helvetica;fontColor=default;" vertex="1" connectable="0" parent="BdKpVgyeB9_RluUFLpPH-20">
          <mxGeometry x="-0.0049" y="-1" relative="1" as="geometry">
            <mxPoint x="31" as="offset" />
          </mxGeometry>
        </mxCell>
        <mxCell id="BdKpVgyeB9_RluUFLpPH-22" style="edgeStyle=elbowEdgeStyle;rounded=0;orthogonalLoop=1;jettySize=auto;html=1;elbow=vertical;curved=0;fontFamily=Helvetica;fontSize=9;fontColor=default;dashed=1;" edge="1" parent="BdKpVgyeB9_RluUFLpPH-1" source="BdKpVgyeB9_RluUFLpPH-24" target="BdKpVgyeB9_RluUFLpPH-5">
          <mxGeometry relative="1" as="geometry">
            <Array as="points">
              <mxPoint x="400" y="370" />
              <mxPoint x="370" y="360" />
            </Array>
          </mxGeometry>
        </mxCell>
        <mxCell id="BdKpVgyeB9_RluUFLpPH-23" value="success" style="edgeLabel;html=1;align=center;verticalAlign=middle;resizable=0;points=[];fontSize=9;fontFamily=Helvetica;fontColor=default;" vertex="1" connectable="0" parent="BdKpVgyeB9_RluUFLpPH-22">
          <mxGeometry x="-0.1953" y="1" relative="1" as="geometry">
            <mxPoint x="-19" y="-11" as="offset" />
          </mxGeometry>
        </mxCell>
        <mxCell id="BdKpVgyeB9_RluUFLpPH-24" value="" style="html=1;points=[];perimeter=orthogonalPerimeter;outlineConnect=0;targetShapes=umlLifeline;portConstraint=eastwest;newEdgeStyle={&quot;edgeStyle&quot;:&quot;elbowEdgeStyle&quot;,&quot;elbow&quot;:&quot;vertical&quot;,&quot;curved&quot;:0,&quot;rounded&quot;:0};labelBackgroundColor=default;fontFamily=Helvetica;fontSize=9;" vertex="1" parent="BdKpVgyeB9_RluUFLpPH-1">
          <mxGeometry x="445" y="340" width="10" height="30" as="geometry" />
        </mxCell>
        <mxCell id="BdKpVgyeB9_RluUFLpPH-25" style="edgeStyle=elbowEdgeStyle;rounded=0;orthogonalLoop=1;jettySize=auto;html=1;elbow=vertical;curved=0;fontFamily=Helvetica;fontSize=9;fontColor=default;" edge="1" parent="BdKpVgyeB9_RluUFLpPH-1" source="BdKpVgyeB9_RluUFLpPH-5" target="BdKpVgyeB9_RluUFLpPH-24">
          <mxGeometry relative="1" as="geometry">
            <Array as="points">
              <mxPoint x="390" y="340" />
              <mxPoint x="410" y="330" />
            </Array>
          </mxGeometry>
        </mxCell>
        <mxCell id="BdKpVgyeB9_RluUFLpPH-26" value="deleteJob()" style="edgeLabel;html=1;align=center;verticalAlign=middle;resizable=0;points=[];fontSize=9;fontFamily=Helvetica;fontColor=default;" vertex="1" connectable="0" parent="BdKpVgyeB9_RluUFLpPH-25">
          <mxGeometry x="0.0005" y="1" relative="1" as="geometry">
            <mxPoint y="-9" as="offset" />
          </mxGeometry>
        </mxCell>
      </root>
    </mxGraphModel>
  </diagram>
</mxfile>
